<?xml version="1.0" standalone="no"?><!DOCTYPE svg PUBLIC "-//W3C//DTD SVG 1.1//EN" "http://www.w3.org/Graphics/SVG/1.1/DTD/svg11.dtd"><svg t="1598015686930" class="icon" viewBox="0 0 1317 1024" version="1.1" xmlns="http://www.w3.org/2000/svg" p-id="3009" xmlns:xlink="http://www.w3.org/1999/xlink" width="257.2265625" height="200"><defs><style type="text/css"></style></defs><path d="M1216.826038 561.695261a327.110385 327.110385 0 0 0-72.861993-498.4283 334.411956 334.411956 0 0 0-46.115186-23.057593 341.175517 341.175517 0 0 0-39.274767-13.142828 327.264103 327.264103 0 0 0-323.959181 93.690686A326.802951 326.802951 0 0 0 252.403784 561.695261s28.514557 28.437698 42.425971 39.274767l439.785156 401.355835 439.785156-401.202118c13.911414-10.837069 42.425971-39.428484 42.425971-39.428484z" fill="#FFF100" p-id="3010"></path><path d="M205.59687 383.690644A367.691749 367.691749 0 0 1 526.327988 19.073241a335.103684 335.103684 0 0 0-44.19372-3.074346 326.802951 326.802951 0 0 0-242.489019 545.696366s15.371729 15.371729 28.89885 27.669112a365.924 365.924 0 0 1-62.947229-205.673729z" fill="#FFFFFF" p-id="3011"></path><path d="M1255.639653 179.016077c-0.999162-1.767749-2.152042-3.38178-3.228063-5.07267a337.02515 337.02515 0 0 1-66.713302 340.868082s-29.360002 29.360002-43.732568 40.504505L691.727788 966.048583l42.733406 38.967332 439.938873-401.355834c13.911414-10.837069 42.425971-39.274767 42.425971-39.274767a326.726092 326.726092 0 0 0 38.813615-385.369237z" fill="#F8B62D" p-id="3012"></path><path d="M1208.448446 114.83911a325.880647 325.880647 0 0 0-64.484401-51.418432" fill="#E60012" p-id="3013"></path><path d="M1208.448446 130.210839a15.371729 15.371729 0 0 1-10.990786-4.688377 315.120437 315.120437 0 0 0-61.486914-48.958956 15.371729 15.371729 0 0 1 15.986597-26.285656 345.402742 345.402742 0 0 1 67.558748 53.80105 15.371729 15.371729 0 0 1-11.067645 26.131939zM734.614911 1023.308272L390.595624 709.340715a15.371729 15.371729 0 1 1 20.751834-23.057593l323.267453 295.13719 430.408402-392.747667c12.297383-9.530472 37.814452-34.816965 40.735081-37.737594a311.354363 311.354363 0 0 0 36.738431-366.923162 15.371729 15.371729 0 1 1 26.439373-15.371729 342.020962 342.020962 0 0 1-40.658222 403.507877l-0.53801 0.614869c-1.15288 1.15288-28.745133 28.591415-43.348275 40.120212zM332.721066 651.005005a15.371729 15.371729 0 0 1-10.375917-3.99665l-37.430159-34.125237c-14.680001-11.528796-42.195395-38.967332-43.348275-40.197071l-0.53801-0.53801a342.097821 342.097821 0 0 1 493.586206-473.449242 342.482114 342.482114 0 0 1 327.725255-86.619691 15.371729 15.371729 0 0 1-7.685865 29.667437A315.965882 315.965882 0 0 0 974.337019 31.370624a312.199808 312.199808 0 0 0-228.423887 99.916236l-11.298221 12.143665L723.316691 131.28686a311.354363 311.354363 0 0 0-459.768404 419.955626c2.920628 2.920628 28.437698 28.207122 40.735081 37.737594l0.922304 0.768586 37.814452 34.509531a15.371729 15.371729 0 0 1-10.299058 26.746808z" fill="#231815" p-id="3014"></path><path d="M782.113553 680.979876a239.03038 239.03038 0 0 0 28.437698-281.763786 243.257606 243.257606 0 0 0-18.907227-27.131101 232.26682 232.26682 0 0 0-15.371728-17.908064 239.875825 239.875825 0 0 0-47.191207-37.583877 236.18661 236.18661 0 0 0-33.817803-17.062618 217.433101 217.433101 0 0 0-28.745133-9.607331 239.260956 239.260956 0 0 0-236.724621 68.55791A238.876663 238.876663 0 0 0 76.858643 680.979876s20.828692 20.828692 30.743457 28.745132l321.499705 293.4463 321.960856-293.4463c10.2222-7.91644 31.050892-28.745133 31.050892-28.745132z" fill="#FFFFFF" p-id="3015"></path><path d="M810.551251 401.060697l-2.382618-3.689215a246.562527 246.562527 0 0 1-48.805239 249.25258s-21.52042 21.443561-31.973195 29.590578L398.358347 976.731934l31.20461 28.437698 321.499704-293.600016c10.2222-7.685864 30.743457-28.745133 30.743457-28.745133a239.03038 239.03038 0 0 0 28.437698-281.763786z" fill="#DCDDDD" p-id="3016"></path><path d="M776.272296 354.176925a239.875825 239.875825 0 0 0-47.191207-37.583877" fill="#E60012" p-id="3017"></path><path d="M776.272296 369.548654a15.371729 15.371729 0 0 1-10.990786-4.688378 223.812369 223.812369 0 0 0-44.19372-35.1244 15.371729 15.371729 0 1 1 15.986598-26.285655 256.707868 256.707868 0 0 1 50.188694 39.966494A15.371729 15.371729 0 0 1 776.272296 369.548654zM429.562957 1024L175.237706 792.271191a15.371729 15.371729 0 0 1 20.751834-23.057593l233.573417 213.129017 312.122949-284.376979c7.685864-5.918116 23.057593-21.366703 29.283143-27.20796a223.658652 223.658652 0 0 0 26.362515-263.317711 15.371729 15.371729 0 0 1 26.439373-15.371729 254.478967 254.478967 0 0 1-30.205447 299.748708l-0.614869 0.614869c-0.845445 0.845445-20.98241 20.905551-31.896337 29.590578zM135.732364 750.306372a15.371729 15.371729 0 0 1-10.375917-4.150367l-27.284818-24.825342c-10.913927-8.685027-30.743457-28.745133-31.896337-29.590577l-0.538011-0.614869a254.248392 254.248392 0 0 1 363.925676-354.472063 255.016978 255.016978 0 0 1 240.72127-61.486914 15.371729 15.371729 0 1 1-7.685864 29.744295 223.966086 223.966086 0 0 0-221.50661 64.176967l-11.528796 11.989948-11.298221-12.143666a223.504934 223.504934 0 0 0-330.107872 301.439599c5.841257 5.841257 21.674137 21.289844 29.283143 27.20796l0.999162 0.768586L146.031422 723.636423a15.371729 15.371729 0 0 1-10.299058 26.669949z" fill="#231815" p-id="3018"></path></svg>