<!DOCTYPE svg PUBLIC "-//W3C//DTD SVG 20010904//EN" "http://www.w3.org/TR/2001/REC-SVG-20010904/DTD/svg10.dtd">
<svg version="1.0" xmlns="http://www.w3.org/2000/svg" width="520px" height="520px" viewBox="0 0 5200 5200" preserveAspectRatio="xMidYMid meet">
<g id="layer101" fill="#584c62" stroke="none">
<path d="M0 2600 l0 -2600 2600 0 2600 0 0 2600 0 2600 -2600 0 -2600 0 0 -2600z"/>
</g>
<g id="layer102" fill="#ae5c67" stroke="none">
<path d="M0 2600 l0 -2600 2600 0 2600 0 0 828 0 828 -52 54 c-92 93 -206 154 -332 175 -30 5 -37 3 -33 -7 66 -151 107 -307 107 -408 0 -141 -50 -308 -152 -509 -38 -73 -78 -145 -89 -160 -11 -14 -42 -60 -68 -101 -77 -117 -199 -259 -406 -468 l-190 -192 -216 0 -217 0 -7 27 c-7 28 -46 133 -70 188 -7 17 -25 59 -40 95 -15 36 -30 68 -34 72 -4 4 -31 -13 -61 -38 -30 -25 -76 -56 -102 -70 -40 -20 -48 -29 -53 -61 -4 -21 -13 -58 -21 -83 -7 -25 -16 -64 -20 -87 l-7 -43 -999 0 -1000 0 -19 22 c-10 13 -47 59 -81 103 -35 44 -75 92 -91 106 -15 15 -27 31 -27 37 0 5 23 39 51 76 48 64 103 110 124 103 14 -5 15 -63 0 -162 l-13 -90 -3 60 c-1 33 -2 69 -1 80 0 11 -1 31 -4 44 l-5 24 -24 -23 c-13 -12 -36 -40 -51 -62 l-27 -38 36 -53 c20 -28 68 -89 107 -134 l71 -83 132 1 c95 0 125 3 108 10 -25 10 -52 39 -45 50 2 3 -8 16 -21 29 -13 13 -22 27 -19 32 3 5 -3 12 -14 15 -29 7 -48 123 -19 123 9 0 9 2 -1 9 -10 6 -7 18 17 53 17 25 31 52 31 60 0 18 -94 111 -103 102 -4 -4 -7 -37 -7 -73 0 -86 -13 -162 -40 -233 -21 -57 -40 -74 -66 -60 -13 7 -13 11 2 23 16 12 17 12 11 -3 -9 -26 0 -22 19 8 12 18 14 28 7 32 -8 5 -6 20 7 47 10 22 21 74 25 115 15 190 16 200 32 200 8 0 27 -8 41 -18 59 -39 257 -112 305 -112 10 0 64 -20 121 -45 58 -24 130 -51 160 -60 51 -15 75 -35 43 -35 -27 0 -138 41 -209 77 -69 35 -188 61 -188 41 0 -4 23 -24 50 -44 28 -20 50 -38 50 -40 0 -8 -124 72 -156 102 -35 31 -89 53 -101 40 -6 -6 58 -66 152 -141 87 -69 168 -108 291 -142 94 -25 111 -26 344 -27 263 -1 373 11 563 61 18 5 24 38 8 47 -5 4 -42 -1 -83 -10 -40 -9 -104 -23 -143 -30 -87 -18 -465 -29 -520 -16 -30 7 5 9 145 10 102 0 223 5 270 11 116 16 289 50 312 62 22 12 26 64 4 56 -117 -45 -323 -87 -460 -93 -120 -5 -226 11 -234 35 -4 11 1 12 19 7 99 -30 315 -12 548 45 143 35 130 24 147 122 l6 38 -74 -53 c-80 -58 -278 -144 -305 -133 -23 8 -8 18 72 50 166 65 255 123 327 213 48 59 48 72 2 72 -66 0 -216 24 -220 35 -3 6 18 54 45 107 l49 96 -49 -17 c-33 -11 -78 -42 -135 -91 -104 -91 -311 -247 -337 -254 -37 -9 -9 19 81 84 100 72 285 220 280 225 -2 1 -34 -2 -73 -7 -86 -12 -205 4 -288 37 l-58 24 -25 -54 c-14 -30 -30 -57 -35 -60 -14 -9 -11 36 7 89 15 44 15 48 -2 68 -19 21 -19 21 4 9 21 -11 24 -9 43 36 59 137 73 163 90 179 12 11 -2 -28 -37 -99 -56 -116 -70 -176 -24 -101 46 73 166 209 248 279 45 38 82 77 82 85 0 8 3 25 6 36 4 15 -4 32 -25 57 -17 19 -31 40 -31 47 0 10 -3 10 -15 0 -8 -7 -15 -16 -15 -21 0 -4 -11 -19 -24 -32 -13 -13 -45 -61 -71 -105 -26 -44 -56 -89 -67 -99 -21 -18 -21 -18 -8 7 29 55 114 196 127 211 12 15 12 24 -4 73 l-19 57 -62 -42 c-35 -24 -95 -72 -133 -108 -84 -80 -92 -76 -11 6 69 70 168 145 222 169 42 19 46 30 17 48 -21 13 -120 -4 -199 -34 -165 -62 -343 -234 -439 -425 l-41 -80 6 72 c9 128 94 340 173 432 44 53 113 100 155 107 26 5 20 0 -29 -25 -71 -37 -128 -97 -180 -189 -43 -77 -99 -231 -108 -297 l-6 -50 39 73 c125 230 323 394 525 433 48 9 169 2 139 -8 -20 -7 -3 -23 25 -23 22 0 24 -2 13 -15 -10 -12 -10 -19 -2 -27 9 -9 12 -8 12 2 1 11 4 10 11 -3 8 -14 18 -17 37 -12 26 6 26 6 7 -9 -19 -14 -19 -16 -4 -43 21 -35 104 -93 133 -92 11 0 39 9 61 19 l40 19 -39 0 c-120 3 -207 174 -172 339 8 39 21 84 30 100 18 34 71 82 92 82 22 0 17 -8 -15 -24 -39 -21 -63 -84 -63 -168 -1 -91 14 -126 59 -134 33 -6 33 -7 14 -21 -24 -16 -29 -71 -9 -91 21 -21 55 -13 79 18 24 30 24 30 40 9 l16 -21 41 21 c44 22 61 53 41 77 -10 12 -8 19 10 37 11 13 21 28 21 33 0 6 7 19 16 30 14 18 15 14 11 -46 -6 -80 -51 -169 -105 -205 l-37 -25 30 -1 c17 0 23 -3 15 -6 -8 -3 -40 -15 -70 -26 -45 -17 -51 -21 -34 -27 27 -10 100 3 122 23 9 8 28 18 42 22 l25 8 -25 -21 c-26 -22 -22 -28 8 -13 133 65 152 86 186 212 l23 83 6 -50 c5 -35 2 -71 -12 -124 -22 -83 -54 -119 -143 -161 -42 -20 -72 -59 -45 -59 6 0 4 -6 -5 -12 -8 -7 -23 -33 -32 -58 -25 -65 -82 -167 -129 -230 -45 -61 -22 -46 54 35 52 56 176 220 232 308 116 181 190 395 167 478 -9 31 -9 32 8 16 15 -15 17 -38 17 -162 0 -79 3 -138 7 -132 10 19 57 151 99 282 77 237 116 477 104 630 -7 92 -38 229 -67 297 l-20 46 -91 17 c-381 69 -794 195 -1096 335 -110 52 -279 139 -268 140 4 0 53 -23 109 -51 400 -201 899 -354 1408 -433 58 -9 130 -20 160 -25 l55 -9 -50 0 c-27 -1 -70 3 -95 8 -53 10 -59 7 -36 -19 27 -30 72 -150 91 -242 13 -63 16 -110 12 -188 -3 -57 -5 -102 -3 -100 6 8 75 295 80 340 l7 45 -34 -4 c-34 -4 -35 -2 -67 65 -18 37 -35 71 -37 76 -2 4 1 7 6 7 6 0 24 -29 40 -65 21 -46 35 -65 48 -65 30 0 43 21 43 68 0 40 2 43 16 31 14 -11 15 -26 10 -89 -8 -84 -11 -100 -72 -325 -40 -150 -81 -266 -99 -283 -5 -4 -5 1 -2 11 47 130 56 387 18 520 -24 87 -62 170 -94 205 -22 23 -47 32 -30 10 5 -7 19 -40 31 -73 100 -286 52 -619 -170 -1175 -55 -140 -125 -287 -140 -296 -5 -3 3 18 18 47 64 128 104 276 103 384 l-1 50 -23 -73 c-61 -190 -237 -463 -435 -675 -45 -48 -80 -87 -77 -87 31 0 85 42 140 108 88 105 148 159 210 188 66 30 110 30 178 0 30 -13 77 -28 105 -34 28 -6 102 -36 165 -66 63 -30 115 -51 117 -47 1 4 48 91 103 192 96 175 280 539 272 539 -6 0 -125 -184 -134 -207 -5 -13 -13 -23 -18 -23 -41 0 165 308 290 435 49 50 89 95 89 100 0 6 12 15 28 21 37 15 376 308 444 384 65 73 109 155 116 218 4 36 7 42 13 25 4 -11 3 -39 -2 -63 -19 -85 -58 -142 -175 -257 l-114 -111 43 -7 c54 -9 87 -39 87 -79 0 -35 32 -84 128 -194 34 -40 73 -90 87 -111 21 -35 29 -40 72 -44 118 -12 223 -60 314 -144 31 -29 59 -53 63 -53 3 0 6 22 6 49 0 45 -3 51 -48 92 -26 24 -58 52 -72 61 -25 17 -24 17 48 17 l72 1 0 34 c0 32 -3 35 -32 39 l-33 3 33 8 32 9 0 123 0 124 -52 1 c-87 1 -105 17 -20 18 l72 1 0 34 c0 33 -1 34 -67 50 -137 35 -443 163 -443 186 0 5 39 -9 86 -32 104 -48 379 -140 408 -136 17 2 8 12 -45 50 -36 25 -109 85 -162 132 l-97 86 -95 -6 c-66 -5 -95 -4 -95 4 0 14 55 21 205 26 66 3 162 10 213 17 l92 12 0 301 0 302 -32 -3 c-75 -7 -609 -7 -568 -1 25 4 170 10 323 14 l277 6 0 154 0 154 -42 -6 c-241 -36 -318 -62 -434 -149 -134 -100 -239 -162 -364 -212 -108 -44 -175 -58 -136 -28 11 8 26 15 34 15 8 0 79 32 157 71 100 49 179 98 266 164 123 92 151 116 351 290 57 50 118 101 137 115 29 23 32 29 29 68 l-3 44 -75 -40 c-41 -21 -93 -45 -115 -52 -59 -19 -336 -142 -445 -198 -297 -154 -299 -155 -310 -185 -5 -16 -8 -32 -6 -36 14 -22 -60 -57 -140 -66 -32 -4 -69 -14 -82 -21 -21 -14 -21 -16 -6 -39 9 -14 12 -25 7 -25 -18 0 -42 25 -67 69 -24 44 -70 70 -122 71 -12 0 -27 7 -34 15 -7 9 -19 14 -27 11 -7 -3 -13 -1 -13 3 0 11 -56 31 -87 31 -13 0 -36 6 -51 14 -15 7 -39 16 -54 20 l-28 6 16 -32 c12 -25 45 -50 138 -105 66 -39 141 -82 165 -95 24 -12 53 -28 65 -35 11 -7 41 -15 65 -19 34 -5 46 -3 53 9 7 14 17 11 70 -23 34 -22 67 -40 75 -40 8 0 11 -4 8 -10 -10 -17 -56 -11 -93 12 -20 12 -59 25 -89 29 -32 4 -98 29 -168 63 -64 31 -122 56 -130 56 -23 0 -163 99 -325 231 -85 69 -200 162 -256 205 -55 43 -154 122 -220 175 -161 130 -328 251 -452 328 -56 34 -102 65 -102 67 0 15 235 -124 329 -195 30 -23 56 -39 58 -37 3 2 -21 44 -51 93 -133 212 -185 288 -197 285 -29 -7 -267 -1 -303 7 l-39 10 53 -47 c29 -26 62 -53 74 -60 26 -17 13 -13 -99 31 -279 109 -479 144 -624 110 -21 -5 -23 -3 -17 13 4 12 4 15 -2 9 -5 -5 -26 -64 -46 -130 -37 -117 -38 -122 -23 -158 9 -20 12 -37 6 -37 -5 0 -12 7 -15 15 -10 24 -22 17 -33 -18 -10 -28 -19 -35 -61 -48 l-50 -16 2 31 c6 103 7 103 -119 224 -123 119 -154 136 -228 130 -36 -3 -40 -5 -37 -28 2 -14 8 -27 13 -28 13 -5 -29 -36 -71 -52 -80 -31 -258 -125 -297 -157 -59 -47 -97 -114 -89 -155 5 -26 4 -29 -9 -18 -8 7 -15 25 -15 39 0 34 47 110 89 142 17 13 43 33 57 44 l26 21 -21 34 c-11 19 -23 54 -27 78 -7 45 -3 61 57 265 l30 97 -59 78 c-32 42 -74 98 -94 124 -20 26 -39 61 -43 78 l-7 30 -239 0 -239 0 0 -2600z m490 2353 c-98 -16 -210 -92 -210 -142 0 -23 1 -24 83 -16 101 8 162 36 188 85 10 19 25 38 34 42 23 14 18 26 -12 31 -27 4 -27 4 -3 5 14 1 32 -3 40 -8 13 -9 13 -12 -2 -20 -9 -6 -28 -30 -42 -54 -36 -62 -92 -87 -205 -94 -58 -3 -91 -1 -95 6 -13 22 23 82 69 114 57 40 99 57 145 56 25 -1 28 -2 10 -5z m1328 -660 c2 -7 -4 -13 -14 -13 -10 0 -31 -12 -46 -27 -24 -23 -28 -24 -28 -8 0 44 75 85 88 48z m-213 -78 c68 -42 114 -65 134 -65 16 0 32 -4 35 -9 3 -4 -35 -11 -85 -14 -120 -8 -152 -24 -212 -112 -57 -83 -119 -196 -138 -251 -11 -33 -14 -35 -17 -16 -7 46 121 264 197 335 41 38 58 47 100 53 28 4 51 10 51 15 0 5 -15 16 -32 25 -82 41 -168 104 -142 104 3 0 52 -29 109 -65z m353 -25 c33 -22 174 -154 314 -293 261 -260 381 -367 518 -463 84 -58 106 -82 43 -43 -134 80 -286 211 -563 484 -162 160 -317 305 -344 323 -27 18 -45 32 -39 32 6 0 38 -18 71 -40z m-1551 -79 c-40 -45 -53 -77 -38 -95 6 -7 8 -16 5 -19 -14 -13 -24 6 -24 44 0 32 7 46 41 80 51 51 64 43 16 -10z m370 12 c-4 -3 -7 0 -7 7 0 7 3 10 7 7 3 -4 3 -10 0 -14z m530 -25 c-3 -8 -6 -5 -6 6 -1 11 2 17 5 13 3 -3 4 -12 1 -19z m-370 -85 c-4 -3 -7 0 -7 7 0 7 3 10 7 7 3 -4 3 -10 0 -14z m-614 -66 c-48 -52 -70 -141 -40 -165 6 -6 39 -15 72 -21 100 -19 229 -57 217 -65 -7 -4 -17 -4 -23 0 -13 8 -148 44 -166 44 -11 0 -43 -53 -112 -185 -17 -33 -31 -51 -31 -41 0 11 25 66 55 122 51 96 57 122 23 109 -7 -3 -25 6 -40 20 -33 30 -37 78 -12 128 19 37 65 89 72 82 3 -3 -4 -15 -15 -28z m954 1 c-3 -8 -6 -5 -6 6 -1 11 2 17 5 13 3 -3 4 -12 1 -19z m-372 2 c-3 -5 -10 -10 -16 -10 -5 0 -9 5 -9 10 0 6 7 10 16 10 8 0 12 -4 9 -10z m1982 -245 c88 -132 183 -269 212 -305 72 -90 248 -268 347 -351 64 -54 85 -78 94 -107 12 -46 13 -163 1 -143 -5 8 -7 29 -4 47 3 18 -2 53 -11 80 -14 40 -29 58 -83 99 -86 66 -266 246 -342 343 -33 42 -100 136 -149 207 -48 72 -122 180 -165 241 -42 62 -77 120 -77 130 0 26 1 24 177 -241z m-1620 198 c-4 -3 -7 0 -7 7 0 7 3 10 7 7 3 -4 3 -10 0 -14z m-397 -7 c0 -3 -5 -8 -12 -12 -7 -4 -8 -3 -4 4 7 12 16 16 16 8z m-33 -22 c-3 -3 -12 -4 -19 -1 -8 3 -5 6 6 6 11 1 17 -2 13 -5z m-90 -10 c-3 -3 -12 -4 -19 -1 -8 3 -5 6 6 6 11 1 17 -2 13 -5z m539 -28 c13 -4 24 -10 24 -15 0 -5 -9 -7 -20 -4 -23 6 -46 -9 -53 -37 -4 -17 -1 -19 21 -14 l27 5 -29 -18 c-28 -18 -116 -180 -116 -213 1 -8 7 -1 14 15 24 54 88 114 143 135 l53 20 17 -28 c10 -15 23 -33 30 -40 7 -8 18 -22 24 -33 12 -23 193 -169 249 -201 43 -25 51 -38 23 -38 -31 0 -117 -66 -207 -156 -110 -112 -157 -234 -185 -477 -20 -175 -28 -200 -115 -382 -75 -154 -103 -221 -121 -287 -17 -63 -39 -90 -28 -36 8 46 58 171 154 388 28 63 60 135 70 160 26 66 41 277 30 429 -17 231 12 416 74 478 40 40 70 45 33 6 -48 -51 -69 -117 -81 -258 -5 -71 -7 -156 -3 -188 l8 -58 38 78 c23 47 56 96 84 122 l46 45 -2 90 c0 50 2 110 6 132 7 40 6 43 -53 105 l-60 63 -27 -24 c-37 -35 -88 -150 -115 -255 -24 -97 -32 -304 -16 -415 14 -96 -10 -34 -59 156 -40 156 -46 196 -51 316 l-6 137 -87 -92 c-126 -133 -159 -175 -191 -242 -33 -69 -35 -100 -10 -172 17 -51 15 -67 -7 -40 -5 6 -13 27 -17 45 -6 31 -27 43 -40 22 -3 -5 -10 -10 -14 -10 -4 0 6 28 22 63 100 213 96 206 234 346 73 73 133 137 133 141 0 5 8 16 17 26 18 17 90 177 101 224 4 17 7 20 10 8 2 -9 14 -19 28 -22z m-599 17 c-4 -3 -10 -3 -14 0 -3 4 0 7 7 7 7 0 10 -3 7 -7z m-23 -138 c-7 -17 -43 -40 -51 -32 -5 6 37 47 49 47 4 0 5 -7 2 -15z m153 -82 c-3 -10 -13 -50 -22 -89 -12 -52 -30 -92 -66 -144 -60 -89 -83 -160 -77 -245 3 -47 1 -62 -8 -58 -51 19 -2 238 73 328 31 36 43 66 73 183 6 23 15 42 21 42 6 0 8 -8 6 -17z m-133 -128 c-49 -46 -93 -84 -99 -84 -5 0 32 40 84 90 52 49 96 87 99 84 3 -3 -35 -43 -84 -90z m3051 5 c3 -5 4 -10 1 -10 -3 0 -8 5 -11 10 -3 6 -4 10 -1 10 3 0 8 -4 11 -10z m-3248 -169 c-19 -65 -19 -71 -4 -119 19 -57 21 -88 8 -97 -13 -8 -41 -135 -41 -187 0 -58 31 -166 63 -219 14 -24 58 -82 98 -129 136 -162 232 -331 254 -452 13 -67 -11 -41 -35 40 -37 120 -41 119 -83 -13 -50 -156 -70 -284 -65 -415 l5 -105 -20 44 c-11 25 -28 88 -39 140 -19 92 -19 120 -2 236 l6 40 -26 -30 c-62 -73 -76 -232 -36 -403 34 -144 147 -360 314 -602 67 -96 82 -138 33 -92 -13 12 -35 22 -50 22 -43 0 -133 39 -213 92 -40 27 -74 51 -74 54 0 2 34 -14 75 -37 54 -29 76 -37 79 -27 2 7 9 38 16 68 l12 55 -46 80 c-120 207 -180 370 -192 518 -11 140 29 268 96 302 17 9 30 21 30 28 0 15 51 67 65 67 5 0 -1 -10 -13 -23 -50 -53 -78 -193 -62 -304 5 -37 10 -74 10 -80 0 -7 5 -13 10 -13 6 0 10 33 10 78 0 125 35 282 87 388 24 50 25 52 8 85 -28 53 -71 115 -172 243 -109 138 -136 186 -153 279 -14 77 -7 154 21 239 18 54 18 60 2 121 -16 60 -16 67 1 130 10 37 24 67 31 67 9 0 7 -18 -8 -69z m523 -53 c7 -24 14 -54 15 -68 3 -38 16 -92 30 -125 7 -16 22 -59 34 -95 12 -36 31 -81 42 -101 10 -21 16 -45 13 -55 -5 -15 -4 -16 4 -5 8 11 16 3 36 -36 14 -28 22 -53 19 -57 -4 -3 -13 8 -20 25 -8 19 -18 29 -27 26 -13 -5 -56 65 -56 92 0 6 -5 11 -10 11 -12 0 -8 -32 21 -155 25 -107 23 -125 -6 -44 -12 37 -30 77 -38 90 -8 13 -39 85 -67 159 -123 319 -119 307 -101 296 8 -5 29 31 27 47 -1 9 43 36 60 37 6 0 17 -19 24 -42z m1050 -153 c0 -2 -16 -12 -35 -21 -61 -29 -91 -64 -99 -116 -6 -42 -25 -66 -40 -51 -8 8 -8 67 0 87 9 25 93 88 127 96 42 10 47 11 47 5z m1794 -114 c74 -51 131 -138 156 -237 10 -40 11 -41 82 -62 55 -16 74 -18 80 -9 11 18 10 175 -2 182 -21 13 -8 22 31 22 35 0 48 -6 81 -39 49 -49 78 -111 83 -181 l4 -52 -9 48 c-18 101 -91 207 -141 207 -17 0 -19 -8 -21 -77 -3 -110 -5 -136 -11 -153 -3 -8 -13 -42 -22 -75 -23 -83 -77 -182 -134 -246 -26 -30 -62 -76 -80 -102 -43 -63 -50 -54 -12 16 54 101 65 156 66 327 0 138 -3 163 -24 230 -21 64 -34 84 -85 136 -35 34 -83 71 -113 84 -28 14 -49 28 -47 32 7 11 64 -14 118 -51z m-3174 39 c8 -5 11 -10 5 -10 -5 0 -17 5 -25 10 -8 5 -10 10 -5 10 6 0 17 -5 25 -10z m2898 -55 c11 -13 24 -37 31 -52 6 -16 32 -41 57 -56 l46 -28 -4 66 c-3 42 -1 60 5 49 5 -9 7 -60 5 -113 -3 -86 -8 -104 -41 -174 -22 -45 -42 -75 -49 -71 -6 4 -6 9 -1 13 10 6 33 45 33 55 0 3 -6 6 -14 6 -8 0 -19 -12 -24 -27 -13 -35 -15 -20 -12 88 3 113 -8 164 -46 220 -34 51 -23 71 14 24z m-2971 -118 c27 -56 78 -147 113 -201 81 -128 183 -322 177 -338 -2 -7 -17 12 -33 44 -24 46 -48 71 -130 136 -160 126 -239 265 -220 385 7 44 22 77 36 77 4 0 31 -46 57 -103z m250 25 c22 -52 79 -245 103 -345 27 -115 40 -225 31 -267 -6 -29 -8 -19 -13 55 -7 101 -56 298 -117 478 -23 65 -41 121 -41 123 0 16 24 -14 37 -44z m3485 8 c41 -34 108 -157 108 -199 0 -41 14 -53 69 -59 l51 -5 31 67 c19 41 32 85 33 112 1 46 26 65 26 19 0 -82 -113 -288 -197 -359 -58 -48 -80 -58 -68 -28 40 97 47 130 43 208 -4 69 -9 90 -39 145 -22 38 -53 77 -78 97 -23 17 -36 32 -29 32 7 0 30 -14 50 -30z m-1670 -40 c44 -88 35 -230 -14 -230 -7 0 -3 6 8 14 16 12 19 27 19 88 0 63 -5 81 -32 131 -17 32 -26 57 -20 55 7 -2 24 -28 39 -58z m-567 -121 c121 -76 185 -102 310 -128 106 -22 138 -35 59 -25 -80 11 -193 42 -253 70 -49 24 -189 111 -215 135 -24 22 10 4 99 -52z m1505 -155 c0 -11 -7 -29 -16 -40 -15 -18 -15 -18 -10 6 3 14 6 39 6 55 0 23 3 27 10 15 5 -8 10 -24 10 -36z m767 -41 c-2 -16 -4 -3 -4 27 0 30 2 43 4 28 2 -16 2 -40 0 -55z m-3137 22 c0 -5 -5 -3 -10 5 -5 8 -10 20 -10 25 0 6 5 3 10 -5 5 -8 10 -19 10 -25z m380 -171 c0 -2 -6 -4 -14 -4 -19 0 -67 40 -60 51 4 8 74 -36 74 -47z m-123 12 c-16 -12 -35 -36 -44 -52 -19 -35 -32 -221 -15 -210 6 3 13 2 17 -4 4 -6 11 -8 16 -5 13 9 42 -10 45 -30 2 -15 1 -15 -15 -1 -25 23 -49 10 -57 -30 -12 -63 46 -91 69 -35 10 23 16 28 27 21 27 -18 50 -10 71 23 11 18 18 44 16 59 -2 15 1 26 7 25 6 -1 12 9 14 23 2 14 7 29 11 33 4 4 4 -20 -1 -55 -10 -72 -37 -134 -79 -179 -27 -29 -33 -31 -79 -27 -27 3 -57 11 -66 19 -53 43 -80 208 -49 301 21 65 48 104 89 129 43 26 57 23 23 -5z m163 -100 c0 -39 -6 -31 -14 19 -5 29 -4 36 3 25 6 -8 11 -28 11 -44z m-374 -37 c-32 -81 -16 -167 52 -271 69 -106 194 -104 318 4 32 29 49 40 36 26 -17 -19 -20 -27 -10 -30 8 -3 -13 -31 -57 -75 l-71 -71 -76 -7 c-61 -6 -82 -4 -112 10 -33 16 -38 16 -61 1 -13 -9 -31 -16 -40 -16 -23 0 -19 46 6 64 l21 14 -26 17 c-25 17 -72 82 -64 90 2 2 12 -11 23 -30 30 -58 34 -40 8 43 -30 96 -26 134 24 229 38 73 58 75 29 2z m261 4 c-4 -3 -7 0 -7 7 0 7 3 10 7 7 3 -4 3 -10 0 -14z m-465 -56 c-49 -51 -102 -187 -102 -265 0 -18 -4 -31 -8 -28 -11 7 4 118 23 175 20 59 60 127 87 145 34 24 35 9 0 -27z m493 13 c21 -40 19 -77 -5 -103 l-21 -21 3 24 c2 20 -1 25 -20 24 -30 -1 -43 44 -27 94 9 24 54 13 70 -18z m-619 -78 c-47 -76 -77 -144 -96 -224 -34 -141 -24 -261 40 -486 21 -75 37 -139 34 -141 -9 -9 -68 139 -91 229 -29 111 -37 322 -15 399 21 73 76 184 111 224 42 47 48 47 17 -1z m237 -92 c3 -11 1 -18 -4 -14 -5 3 -9 12 -9 20 0 20 7 17 13 -6z m1474 -86 c30 -14 53 -27 51 -29 -2 -3 -34 6 -71 19 -36 13 -64 26 -60 30 11 10 24 7 80 -20z m-1627 -109 c-8 -112 -2 -240 15 -325 17 -87 91 -253 173 -389 110 -183 252 -374 266 -360 3 3 1 41 -5 85 -23 163 5 383 68 525 50 112 141 223 230 279 65 41 79 38 17 -4 -118 -80 -216 -226 -270 -401 -26 -83 -28 -103 -28 -260 0 -190 20 -316 67 -413 17 -36 21 -52 12 -52 -7 0 -18 6 -24 13 -11 15 -51 131 -51 152 0 6 -34 54 -76 106 -108 133 -207 283 -287 434 -67 129 -84 130 -30 1 48 -115 164 -350 188 -382 29 -38 34 -64 8 -43 -40 34 -156 244 -207 376 -19 49 -47 141 -63 204 -25 106 -27 127 -26 303 2 119 7 201 14 218 6 16 13 27 14 26 1 -2 -2 -43 -5 -93z m1740 4 c12 -22 19 -46 17 -52 -3 -9 -47 74 -47 89 0 14 13 -2 30 -37z m-104 -101 c18 -36 12 -109 -11 -128 -10 -8 -15 -9 -15 -2 0 6 5 14 10 17 14 9 -7 45 -25 45 -8 0 -15 -9 -15 -20 0 -34 -29 -23 -36 14 -8 46 7 88 36 103 29 14 35 11 56 -29z m-339 -55 c-3 -10 -5 -4 -5 12 0 17 2 24 5 18 2 -7 2 -21 0 -30z m10 -70 c-3 -10 -5 -2 -5 17 0 19 2 27 5 18 2 -10 2 -26 0 -35z m-1280 10 c-4 -3 -7 0 -7 7 0 7 3 10 7 7 3 -4 3 -10 0 -14z m22 -58 c0 -5 -4 -3 -9 5 -5 8 -9 22 -9 30 0 16 17 -16 18 -35z m30 -59 c35 -67 80 -117 125 -137 23 -10 35 -19 28 -19 -42 0 -124 75 -162 149 -11 22 -20 43 -20 46 0 13 8 2 29 -39z m-757 -80 c-4 -62 25 -131 85 -196 19 -22 31 -40 27 -40 -10 0 -48 46 -89 105 -21 32 -25 34 -25 16 0 -12 12 -49 26 -82 35 -84 23 -86 -16 -2 -18 37 -37 71 -43 74 -12 9 -1 99 18 146 8 18 15 33 17 33 2 0 1 -24 0 -54z m164 -278 l29 -33 -32 29 c-31 28 -38 36 -30 36 2 0 16 -15 33 -32z m498 -496 c8 -13 -184 -206 -194 -196 -24 24 -90 270 -90 336 0 7 277 -129 284 -140z m2306 -632 l21 -30 -45 0 c-25 0 -46 4 -46 8 0 8 38 52 45 52 2 0 13 -13 25 -30z"/>
<path d="M1269 3650 c-61 -40 -103 -102 -122 -180 -16 -70 -15 -102 9 -249 23 -137 30 -150 38 -66 22 240 65 372 145 449 26 25 28 31 19 52 -15 32 -35 30 -89 -6z"/>
<path d="M1517 3458 c-13 -54 -19 -188 -9 -188 6 0 14 10 17 23 4 12 18 50 32 85 l25 63 -24 19 c-30 25 -35 25 -41 -2z"/>
<path d="M1571 3369 c-13 -28 -20 -53 -17 -56 3 -3 26 12 51 32 43 36 45 39 29 56 -27 30 -40 23 -63 -32z"/>
<path d="M953 3293 c4 -3 10 -3 14 0 3 4 0 7 -7 7 -7 0 -10 -3 -7 -7z"/>
<path d="M1900 3030 c0 -7 3 -10 7 -7 3 4 3 10 0 14 -4 3 -7 0 -7 -7z"/>
<path d="M1890 2970 c0 -7 3 -10 7 -7 3 4 3 10 0 14 -4 3 -7 0 -7 -7z"/>
<path d="M4030 2601 c0 -109 0 -109 26 -115 14 -4 32 -2 39 4 18 15 69 180 59 189 -9 8 -93 31 -113 31 -7 0 -11 -39 -11 -109z"/>
<path d="M3990 2340 c0 -7 3 -10 7 -7 3 4 3 10 0 14 -4 3 -7 0 -7 -7z"/>
<path d="M3630 2857 c0 -30 4 -35 27 -40 27 -5 43 6 43 29 0 9 -13 18 -62 42 -5 2 -8 -12 -8 -31z"/>
<path d="M3630 2755 c0 -37 3 -45 18 -45 11 0 24 11 30 25 15 34 15 48 0 39 -9 -5 -9 -2 1 9 12 15 10 17 -18 17 -30 0 -31 -1 -31 -45z"/>
<path d="M537 2953 c-4 -3 -7 -39 -7 -78 0 -81 18 -126 86 -215 37 -49 194 -181 194 -163 0 5 -43 75 -95 157 -52 81 -95 152 -95 157 0 11 -68 149 -73 149 -2 0 -7 -3 -10 -7z"/>
<path d="M4448 2583 c-9 -38 -20 -77 -24 -88 l-7 -20 23 20 c13 11 43 47 68 80 l44 60 -28 6 c-58 13 -59 12 -76 -58z"/>
<path d="M1266 2042 c-6 -10 21 -64 37 -74 7 -4 22 -8 35 -8 22 0 22 2 -14 45 -36 45 -48 52 -58 37z"/>
<path d="M1543 5170 c9 -44 71 -207 146 -380 63 -147 68 -155 96 -158 63 -6 242 -58 338 -97 13 -6 16 -3 11 9 -3 9 -32 30 -63 46 -88 47 -182 140 -141 140 6 0 27 -19 48 -42 90 -101 196 -138 389 -138 139 0 139 0 102 63 -17 29 -68 129 -113 222 -74 152 -107 226 -146 333 l-12 32 -124 0 -123 0 -8 -37 c-4 -21 -8 -122 -8 -225 0 -129 -3 -181 -10 -170 -6 10 -10 102 -9 225 l1 207 -190 0 -189 0 5 -30z"/>
<path d="M2250 5148 c71 -200 218 -495 345 -693 28 -44 82 -133 119 -198 l68 -117 167 -133 c91 -73 256 -205 366 -292 258 -207 241 -196 206 -136 -47 80 -114 238 -166 396 -70 212 -189 682 -218 863 -11 71 -12 73 -47 81 -217 52 -417 108 -468 132 -44 20 -82 48 -121 89 l-57 60 -107 0 -106 0 19 -52z"/>
<path d="M2623 5174 c64 -43 146 -74 221 -84 98 -13 325 -11 421 3 l80 12 3 38 c2 20 1 37 -1 37 -3 0 -22 -8 -43 -17 -30 -13 -79 -18 -208 -21 -180 -5 -284 6 -371 39 -27 10 -70 19 -95 19 l-45 0 38 -26z"/>
<path d="M4260 5196 c0 -2 -7 -39 -15 -82 -8 -43 -13 -79 -11 -81 2 -2 34 8 73 21 91 34 219 71 378 111 l130 33 -277 1 c-153 1 -278 -1 -278 -3z"/>
<path d="M1026 5108 c-65 -12 -185 -69 -212 -99 -22 -26 -35 -57 -121 -299 -50 -141 -73 -193 -73 -163 0 11 66 197 119 338 36 94 38 105 12 98 -16 -4 -31 -40 -71 -167 -29 -88 -59 -182 -68 -208 -13 -36 -14 -52 -5 -70 6 -13 16 -37 23 -55 23 -60 29 -60 160 -3 66 29 125 59 131 66 6 7 8 23 4 35 -11 33 -61 22 -224 -48 -10 -4 -12 -2 -6 6 10 17 85 50 150 67 77 21 203 18 241 -5 41 -25 304 -286 304 -302 0 -7 -14 0 -31 17 l-31 29 7 -45 c4 -25 8 -46 10 -48 1 -1 16 3 33 9 27 9 34 19 48 67 9 32 23 71 30 87 18 44 111 344 118 383 5 30 -8 46 -16 20 -2 -6 -18 13 -35 44 -21 37 -62 81 -123 134 -108 93 -117 99 -194 113 -69 13 -111 13 -180 -1z m-356 -600 c0 -23 -3 -29 -11 -21 -6 6 -8 20 -4 32 9 30 15 26 15 -11z"/>
<path d="M5104 3793 c-184 -157 -252 -218 -249 -221 1 -1 41 8 87 22 47 13 122 30 168 37 45 7 84 18 86 24 3 6 3 58 2 114 l-3 103 -91 -79z"/>
<path d="M5085 2674 c-38 -7 -94 -13 -122 -13 -29 -1 -53 -5 -53 -9 0 -13 180 -167 258 -221 l32 -22 0 140 c0 162 12 150 -115 125z"/>
<path d="M4047 1997 c-9 -30 -29 -71 -42 -92 -14 -20 -37 -60 -51 -88 -42 -83 -248 -423 -334 -552 -40 -59 -120 -205 -120 -219 0 -2 6 -6 14 -9 23 -9 216 251 302 406 105 188 203 406 239 530 21 75 15 96 -8 24z"/>
<path d="M3982 1966 c-47 -50 -89 -122 -77 -134 11 -11 87 75 112 126 14 29 24 55 21 57 -3 3 -28 -19 -56 -49z"/>
<path d="M5153 1870 c19 -16 37 -30 41 -30 3 0 6 14 6 30 0 28 -2 30 -40 30 l-41 0 34 -30z"/>
<path d="M4252 1835 c-33 -31 -81 -86 -105 -123 -78 -118 -247 -465 -247 -507 0 -22 102 122 105 146 3 40 245 418 310 485 29 31 37 45 27 49 -23 9 -27 7 -90 -50z"/>
<path d="M4330 1823 c-48 -54 -153 -208 -236 -345 l-56 -93 63 70 c101 112 149 154 187 165 34 9 37 7 74 -33 43 -46 88 -121 109 -179 7 -21 16 -38 19 -38 3 0 21 28 40 63 33 62 68 117 150 234 78 112 53 59 -48 -103 -118 -189 -132 -215 -132 -248 0 -40 16 -39 41 1 13 21 53 81 90 133 68 96 159 254 159 278 0 6 -5 12 -11 12 -6 0 -55 18 -109 40 -89 35 -263 90 -289 90 -5 0 -28 -21 -51 -47z"/>
<path d="M3907 1806 c-20 -18 -37 -39 -37 -45 0 -9 -61 -146 -77 -173 -2 -5 -2 -8 0 -8 5 0 119 186 146 238 16 30 11 28 -32 -12z"/>
<path d="M2495 1610 c3 -5 8 -10 11 -10 3 0 2 5 -1 10 -3 6 -8 10 -11 10 -3 0 -2 -4 1 -10z"/>
<path d="M2282 1600 c-23 -10 -23 -26 0 -89 9 -25 9 -25 29 -5 16 17 19 28 13 62 -7 45 -7 45 -42 32z"/>
<path d="M4260 1581 c-5 -11 -10 -26 -10 -33 0 -7 -12 -38 -26 -68 -18 -39 -59 -89 -144 -175 -65 -66 -132 -136 -150 -155 l-32 -35 19 35 c10 19 77 95 150 169 102 104 136 145 148 179 17 52 13 64 -13 36 -181 -201 -326 -394 -321 -427 1 -7 -6 -30 -15 -52 -58 -132 -55 -123 -39 -130 9 -3 17 -4 17 -3 1 2 10 19 20 39 43 83 287 359 347 393 25 14 12 -4 -52 -70 -109 -112 -215 -235 -259 -298 -27 -40 -31 -52 -21 -65 6 -9 21 -31 32 -48 26 -41 41 -42 188 -3 63 17 116 28 119 26 11 -11 -131 -60 -208 -71 -73 -11 -80 -14 -80 -42 l0 -26 68 7 c132 14 343 67 459 117 54 23 70 18 22 -6 -94 -49 -374 -125 -458 -125 -101 0 -140 -33 -53 -45 101 -14 445 86 541 156 39 29 41 33 41 85 0 50 -28 195 -66 351 -35 138 -154 331 -154 248 0 -18 -71 -167 -77 -161 -3 3 9 39 26 80 37 88 41 136 11 136 -10 0 -24 -9 -30 -19z m97 -463 c26 -29 46 -68 36 -68 -5 0 -17 13 -26 29 -10 17 -26 33 -36 36 -27 8 -203 -81 -318 -162 -51 -35 -93 -59 -93 -54 0 33 342 240 396 241 11 0 30 -10 41 -22z"/>
<path d="M2340 1564 c0 -9 5 -14 12 -12 18 6 21 28 4 28 -9 0 -16 -7 -16 -16z"/>
<path d="M2948 1540 c-9 -16 -13 -32 -8 -35 11 -7 32 31 28 50 -2 10 -9 4 -20 -15z"/>
<path d="M2374 1501 c9 -10 16 -25 16 -34 0 -24 40 -47 82 -47 43 0 59 15 26 26 -13 3 -35 15 -50 25 -14 11 -33 19 -42 19 -9 0 -15 5 -13 11 1 6 -6 13 -16 14 -17 3 -17 2 -3 -14z"/>
<path d="M2531 1401 c-42 -22 -30 -31 44 -33 45 -1 60 3 78 20 l21 22 -26 0 c-14 0 -38 2 -54 5 -18 3 -42 -2 -63 -14z"/>
<path d="M2715 1404 c-17 -8 -34 -20 -40 -26 -15 -16 47 0 64 17 22 22 9 26 -24 9z"/>
<path d="M2766 1405 c-3 -8 -1 -15 4 -15 6 0 10 7 10 15 0 8 -2 15 -4 15 -2 0 -6 -7 -10 -15z"/>
<path d="M2749 1361 c-19 -16 -20 -20 -8 -21 17 0 45 27 37 35 -3 3 -16 -3 -29 -14z"/>
<path d="M2675 1355 l-40 -13 36 -1 c24 -1 39 4 43 14 3 8 4 15 3 14 -1 -1 -20 -7 -42 -14z"/>
<path d="M2462 1330 c-18 -11 -41 -20 -51 -20 -23 0 -150 -108 -230 -196 -67 -75 -132 -165 -125 -175 9 -15 104 -41 183 -50 57 -6 110 -6 165 1 78 10 83 12 123 56 76 81 143 178 188 269 52 105 54 116 21 107 -13 -4 -54 -48 -99 -107 -42 -55 -90 -116 -107 -135 -56 -64 -31 -18 43 79 40 53 83 111 96 129 l22 32 -43 0 c-42 0 -45 -2 -194 -154 -84 -84 -164 -175 -179 -200 -24 -41 -45 -59 -45 -38 0 17 140 183 242 288 106 109 108 111 81 117 -15 3 -35 8 -43 11 -8 3 -30 -3 -48 -14z"/>
<path d="M2568 1343 c6 -2 18 -2 25 0 6 3 1 5 -13 5 -14 0 -19 -2 -12 -5z"/>
<path d="M2424 1328 c-4 -7 -3 -8 4 -4 7 4 12 9 12 12 0 8 -9 4 -16 -8z"/>
<path d="M2995 1229 c-85 -28 -85 -30 -15 -49 109 -29 259 -89 365 -145 130 -70 230 -137 230 -154 0 -24 -502 -36 -559 -12 -39 16 -28 24 14 10 37 -13 371 -6 411 9 19 7 3 15 -92 45 -168 54 -225 63 -292 43 -43 -13 -64 -26 -96 -62 -46 -53 -50 -73 -20 -100 28 -26 126 -30 364 -15 205 13 295 26 322 47 17 12 16 13 -4 14 -12 0 -25 5 -28 10 -4 6 10 10 34 10 23 0 41 4 41 8 0 5 -28 29 -62 55 -35 25 -85 62 -112 83 -65 48 -140 85 -289 141 -67 25 -129 52 -138 59 -18 16 -32 16 -74 3z"/>
<path d="M3807 1056 c-9 -13 -42 -51 -73 -85 -57 -62 -65 -83 -22 -60 12 7 39 15 58 18 28 5 35 12 41 36 4 17 11 49 17 73 11 47 2 54 -21 18z"/>
<path d="M3733 897 c-28 -12 -62 -34 -76 -48 -35 -34 -60 -112 -59 -179 0 -46 5 -58 27 -77 29 -26 109 -32 148 -12 34 18 97 70 97 80 0 5 -16 9 -36 9 -26 0 -46 -9 -77 -35 -43 -37 -67 -44 -67 -20 0 8 6 15 14 15 17 0 105 97 117 129 15 37 4 50 -14 16 -23 -43 -104 -131 -112 -123 -4 4 -2 15 6 24 11 14 11 18 1 22 -7 2 -19 11 -28 19 -14 14 -16 14 -21 -6 -3 -11 -9 -21 -13 -21 -4 0 -3 19 3 42 13 52 80 122 125 131 67 13 149 -50 113 -86 -8 -8 -11 -3 -12 19 0 26 -2 25 -14 -14 -12 -41 -12 -44 10 -66 l24 -24 10 31 c21 59 14 109 -21 150 -42 48 -78 54 -145 24z"/>
<path d="M3745 831 c-11 -5 -29 -18 -39 -30 -19 -21 -19 -21 19 -36 20 -9 38 -15 40 -13 1 2 14 22 29 46 l26 42 -27 -1 c-16 0 -37 -4 -48 -8z"/>
<path d="M2837 722 c-30 -59 -64 -138 -76 -176 -23 -74 -37 -261 -22 -285 8 -13 32 -13 163 -3 84 7 180 19 213 28 84 22 185 84 269 166 79 77 77 77 -46 -5 -47 -31 -94 -57 -104 -57 -10 0 9 16 42 36 66 39 139 93 229 168 53 43 61 54 65 93 3 23 5 43 3 43 -1 0 -21 -13 -45 -29 -35 -23 -183 -118 -308 -197 -14 -9 -5 3 20 26 24 23 81 65 125 94 44 29 112 74 151 99 39 25 76 58 83 73 10 24 10 26 -6 19 -10 -4 -63 -11 -118 -16 -55 -4 -138 -13 -185 -19 -196 -23 -360 -8 -376 35 -3 8 -10 15 -14 15 -5 0 -33 -48 -63 -108z m323 -354 c-76 -28 -307 -31 -360 -5 -35 17 -35 17 -5 12 87 -14 245 -15 315 -2 104 20 114 19 50 -5z"/>
<path d="M2566 765 c-11 -19 -17 -37 -15 -39 6 -5 180 -26 217 -26 22 0 32 6 37 21 9 28 -8 39 -61 39 -36 0 -99 15 -144 34 -11 4 -21 -5 -34 -29z"/>
<path d="M3675 751 c-2 -5 1 -13 8 -19 18 -15 49 -19 54 -6 5 14 -54 37 -62 25z"/>
</g>
<g id="layer103" fill="#91787f" stroke="none">
<path d="M0 2600 l0 -2600 2600 0 2600 0 0 828 0 828 -52 53 c-54 55 -133 110 -194 136 -20 8 -38 15 -40 15 -2 0 11 -21 30 -47 36 -51 80 -133 74 -138 -2 -2 -18 24 -36 58 -18 34 -47 79 -65 100 -28 33 -39 39 -87 44 -46 5 -53 4 -44 -8 22 -28 62 -146 83 -241 34 -156 26 -264 -32 -438 -31 -95 -153 -347 -186 -385 -9 -11 -33 -46 -51 -78 -70 -118 -344 -434 -526 -606 l-85 -81 -218 0 -217 0 -33 93 c-19 50 -42 111 -52 134 -11 24 -19 45 -19 47 0 2 -11 29 -25 60 l-25 57 -50 -44 c-27 -24 -73 -57 -104 -73 -33 -17 -57 -37 -59 -49 -3 -11 -15 -66 -28 -123 l-23 -102 -1007 0 c-883 0 -1008 2 -1019 15 -7 8 -9 15 -4 15 5 1 -1 9 -13 19 -12 10 -19 21 -16 25 4 3 -2 6 -12 6 -20 0 -36 18 -66 73 -29 55 -51 77 -76 77 -13 0 -23 6 -23 13 0 8 30 51 66 95 62 78 114 119 134 107 10 -6 5 -106 -9 -195 l-9 -55 -3 60 c-1 33 -2 69 -1 80 0 11 -1 31 -4 44 l-5 24 -24 -23 c-13 -12 -36 -40 -51 -62 l-27 -38 36 -53 c20 -28 68 -89 107 -134 l71 -83 132 1 c95 0 125 3 108 10 -25 10 -52 39 -45 50 2 3 -8 16 -21 29 -13 13 -22 27 -19 32 3 5 -3 12 -14 15 -29 7 -48 123 -19 123 9 0 9 2 -1 9 -10 6 -7 18 17 53 17 25 31 52 31 60 0 18 -94 111 -103 102 -4 -4 -7 -37 -7 -73 0 -86 -13 -162 -40 -233 -21 -57 -40 -74 -66 -60 -13 7 -13 11 2 23 16 13 17 12 11 -6 -6 -17 -4 -17 13 4 22 25 26 41 10 41 -15 0 -12 40 4 46 19 7 25 36 36 172 9 115 9 117 -14 137 -13 11 -32 25 -42 31 -10 7 -16 14 -13 18 5 5 118 -47 159 -73 27 -17 259 -101 280 -101 11 0 67 -20 124 -45 58 -24 130 -51 160 -60 51 -15 75 -35 43 -35 -27 0 -138 41 -209 77 -68 35 -188 61 -188 41 0 -4 34 -32 75 -63 41 -30 75 -57 75 -60 0 -6 -63 16 -78 28 -7 5 -15 7 -18 5 -3 -3 9 -16 26 -28 16 -12 28 -26 24 -31 -11 -19 232 -99 301 -99 29 0 34 24 8 34 -43 17 21 25 192 24 99 0 218 5 265 11 116 16 289 50 312 62 22 12 26 64 4 56 -117 -45 -323 -87 -460 -93 -119 -5 -226 11 -234 35 -3 10 3 11 29 5 36 -8 242 -7 271 2 9 3 19 13 22 22 3 9 20 23 38 31 152 66 227 110 220 129 -2 7 5 12 17 12 11 0 23 5 27 11 4 7 0 9 -12 6 -11 -3 -36 -9 -56 -13 -21 -3 -42 -12 -48 -19 -6 -8 -18 -11 -26 -8 -8 3 -14 0 -14 -7 0 -6 -4 -9 -8 -6 -5 3 -38 8 -73 11 -35 4 -80 8 -99 10 -19 2 -54 6 -76 8 -23 3 -46 7 -50 9 -5 3 -58 2 -119 -2 -158 -9 -246 -4 -365 20 -58 12 -154 30 -215 41 -125 21 -217 48 -324 95 l-74 32 -34 -20 c-18 -11 -71 -61 -118 -111 l-84 -91 -16 37 c-8 20 -15 44 -15 52 0 9 -4 14 -9 10 -12 -7 -23 28 -15 49 3 9 2 16 -3 16 -6 0 -13 33 -16 74 -4 40 -9 80 -13 89 -3 9 -45 40 -92 68 -251 151 -350 277 -345 439 3 95 22 173 50 206 24 29 24 29 18 4 -34 -120 70 -274 273 -404 75 -49 92 -51 92 -12 0 13 5 36 10 53 10 27 5 40 -48 134 -138 243 -171 339 -179 519 -5 102 -3 122 17 175 15 39 37 74 64 100 23 22 50 53 60 68 9 16 30 33 45 38 19 7 34 24 49 56 l21 46 -28 48 c-15 27 -63 94 -107 150 -147 187 -179 239 -199 318 -21 88 -17 187 13 275 18 53 19 63 6 99 -18 51 -18 114 1 166 l14 42 -77 -6 c-55 -5 -72 -3 -61 4 9 6 62 12 117 15 80 3 105 7 124 22 38 31 160 146 201 189 l38 40 -27 24 c-23 19 -35 22 -71 17 -44 -6 -105 -32 -175 -75 -58 -35 -45 -8 13 30 29 18 46 35 40 37 -7 2 -18 -1 -23 -6 -7 -7 -18 -8 -27 -3 -33 18 -171 45 -180 35 -4 -5 -18 -26 -30 -46 l-23 -38 64 -1 c109 -2 124 -17 18 -18 l-96 -1 -27 -55 c-31 -63 -35 -120 -10 -147 9 -10 11 -18 5 -18 -19 0 -42 44 -42 81 0 26 18 73 55 146 l55 108 -30 8 c-36 9 -70 51 -70 86 0 30 56 129 82 145 29 18 33 -3 6 -32 -70 -75 -73 -172 -4 -172 12 0 74 -14 140 -30 65 -17 125 -30 134 -30 8 0 38 11 66 24 28 13 81 38 119 54 43 20 71 39 77 54 9 21 10 21 7 -7 -2 -27 -10 -34 -75 -66 l-73 -36 40 -7 c28 -4 46 -14 57 -32 16 -23 16 -30 -6 -120 -17 -74 -32 -109 -68 -162 -25 -37 -54 -89 -64 -117 -21 -53 -29 -158 -14 -189 8 -17 7 -18 -15 -12 -85 26 -143 36 -152 27 -8 -8 -4 -11 13 -11 14 0 56 -8 93 -17 55 -14 87 -31 155 -83 185 -139 305 -341 352 -590 16 -85 18 -90 19 -45 0 28 -6 77 -13 110 -19 77 -86 243 -128 314 -42 69 -156 186 -231 236 -60 40 -70 51 -37 42 17 -4 29 12 81 121 60 125 63 129 195 261 74 74 136 143 140 153 3 10 9 18 13 18 5 0 18 28 31 63 12 34 33 82 46 107 30 58 82 313 90 447 l7 103 -109 111 c-60 61 -120 117 -134 124 -14 7 -50 15 -80 16 -51 3 -55 1 -58 -20 -3 -21 -1 -22 35 -16 l38 6 -45 -26 c-25 -14 -52 -29 -60 -35 -8 -5 -53 -25 -100 -45 -165 -70 -262 -141 -304 -224 -22 -41 -12 -59 66 -125 65 -55 108 -104 108 -124 0 -5 -35 25 -77 68 -43 42 -91 85 -106 95 l-29 18 -50 -54 c-45 -49 -49 -57 -45 -92 5 -39 -7 -46 -26 -15 -22 33 28 116 93 154 19 12 27 25 28 46 1 46 48 114 107 158 30 22 55 44 55 47 0 4 -9 25 -20 48 -11 23 -20 59 -21 81 -1 32 60 265 85 324 4 10 -27 59 -89 140 -55 73 -97 139 -101 158 l-6 32 -239 0 -239 0 0 -2600z m614 2350 c5 -5 -2 -22 -15 -39 -13 -17 -34 -44 -46 -60 -13 -16 -40 -37 -60 -46 -40 -19 -178 -37 -212 -28 -47 12 -12 86 66 140 43 30 64 37 111 39 56 3 56 3 15 -6 -63 -13 -113 -40 -156 -83 -58 -58 -49 -73 43 -69 100 5 160 31 189 82 11 21 28 40 36 44 23 8 18 26 -7 26 -13 0 -30 5 -38 11 -11 8 -5 9 25 4 22 -4 44 -10 49 -15z m176 -664 c8 -29 10 -68 6 -108 l-7 -63 44 -13 c53 -16 117 -66 117 -92 0 -10 -15 -36 -32 -59 -18 -22 -40 -49 -48 -61 -12 -16 -36 -23 -125 -34 -60 -8 -112 -13 -114 -10 -9 8 55 25 132 33 66 8 85 14 100 32 24 29 14 34 -83 43 -41 4 -79 11 -85 17 -7 8 5 9 40 5 171 -22 204 -15 191 40 -5 20 -23 33 -79 58 -67 31 -74 37 -97 87 -14 29 -39 77 -57 106 -17 29 -28 53 -24 53 14 0 38 -33 72 -100 l34 -65 3 54 c2 29 -2 67 -7 84 -13 36 -14 50 -2 43 4 -3 14 -26 21 -50z m-309 -361 c57 -30 96 -55 85 -55 -26 0 -219 108 -195 110 3 0 53 -25 110 -55z m-226 -977 c-14 -29 -25 -66 -25 -83 0 -39 77 -175 146 -259 44 -54 237 -216 352 -295 18 -13 31 -25 28 -28 -8 -8 -246 177 -328 255 -77 74 -147 168 -195 264 -23 46 -24 54 -13 93 12 41 45 105 54 105 3 0 -6 -24 -19 -52z m4784 -1328 c0 -10 -3 -8 -9 5 -12 27 -12 43 0 25 5 -8 9 -22 9 -30z m8 -42 c-3 -8 -6 -5 -6 6 -1 11 2 17 5 13 3 -3 4 -12 1 -19z m10 -50 c-3 -7 -5 -2 -5 12 0 14 2 19 5 13 2 -7 2 -19 0 -25z m-2670 -1075 c-4 -3 -10 -3 -14 0 -3 4 0 7 7 7 7 0 10 -3 7 -7z m945 -383 l17 -30 -44 0 c-50 0 -54 6 -25 38 27 29 32 28 52 -8z"/>
<path d="M1543 5171 c13 -63 195 -514 215 -532 4 -4 35 -10 70 -13 l62 -7 -21 53 c-29 71 -169 498 -169 515 0 8 -12 13 -30 13 -16 0 -30 -3 -30 -6 0 -13 106 -328 146 -433 45 -118 51 -154 15 -82 -33 64 -60 134 -126 331 l-63 185 -37 3 c-37 3 -38 3 -32 -27z"/>
<path d="M1722 5188 c3 -7 17 -53 32 -103 62 -203 97 -298 144 -391 l50 -98 79 -27 c43 -14 86 -30 96 -34 13 -6 16 -3 11 9 -3 9 -32 30 -63 46 -88 47 -182 140 -141 140 6 0 27 -19 48 -42 90 -101 196 -138 389 -138 139 0 139 0 102 63 -17 29 -68 129 -113 222 -74 152 -107 226 -146 333 l-12 32 -124 0 -123 0 -8 -37 c-4 -21 -8 -122 -8 -225 0 -129 -3 -181 -10 -170 -6 10 -10 102 -9 225 l1 207 -100 0 c-75 0 -98 -3 -95 -12z m354 -143 c17 -37 14 -65 -9 -65 -7 0 -20 -11 -27 -25 -17 -32 -33 -32 -59 1 -30 38 -35 64 -17 82 13 14 20 14 36 4 26 -16 30 -15 30 6 0 43 24 42 46 -3z m-41 -151 c15 -15 15 -18 -1 -35 -10 -11 -31 -19 -51 -19 -28 0 -33 3 -33 25 0 41 54 59 85 29z m132 -46 c42 -39 23 -84 -22 -54 -24 16 -34 54 -18 69 10 11 15 9 40 -15z m-57 -56 c16 -45 8 -74 -22 -80 -38 -8 -59 48 -38 103 15 39 42 28 60 -23z"/>
<path d="M2250 5148 c71 -200 218 -495 345 -693 28 -44 82 -133 119 -198 l68 -118 219 -174 c120 -96 221 -175 224 -175 2 0 -6 24 -18 53 -13 28 -27 65 -31 82 -7 29 -7 29 12 12 11 -10 32 -53 47 -95 26 -74 65 -125 118 -153 15 -9 14 -4 -5 35 -12 25 -19 49 -15 53 12 11 24 -9 41 -67 13 -48 24 -62 77 -105 101 -81 103 -82 70 -26 -47 80 -114 238 -166 396 -70 212 -189 682 -218 863 -11 71 -12 73 -47 81 -217 52 -417 108 -468 132 -44 20 -82 48 -121 89 -54 57 -60 60 -104 60 -26 0 -47 -3 -47 -6 0 -4 20 -29 45 -55 67 -72 59 -97 -10 -29 -41 40 -55 49 -55 36 0 -30 57 -115 121 -183 33 -34 59 -67 59 -73 0 -44 -166 145 -213 242 -20 42 -38 67 -49 67 -16 1 -16 -3 2 -51z"/>
<path d="M2780 5183 c59 -21 362 -30 457 -13 142 24 100 30 -202 29 -284 -1 -298 -2 -255 -16z"/>
<path d="M4010 5115 c47 -47 92 -85 101 -85 9 0 22 -6 29 -14 9 -12 17 -12 35 -4 20 9 27 25 40 87 9 42 18 82 20 89 3 9 -15 12 -70 12 -72 0 -75 -1 -75 -24 0 -40 -12 -86 -23 -86 -6 0 -8 21 -4 55 l6 55 -72 0 -72 0 85 -85z"/>
<path d="M4260 5196 c0 -2 -7 -39 -15 -82 -8 -43 -13 -79 -12 -81 2 -2 35 8 73 22 91 32 220 70 379 110 l130 33 -277 1 c-153 1 -278 -1 -278 -3z"/>
<path d="M1026 5108 c-65 -12 -185 -69 -212 -99 -22 -26 -35 -57 -121 -299 -50 -141 -73 -193 -73 -163 0 11 66 197 119 338 36 94 38 105 12 98 -16 -4 -31 -40 -71 -167 -29 -88 -59 -182 -68 -208 -13 -36 -14 -52 -5 -70 6 -13 16 -37 23 -55 23 -60 29 -60 160 -3 66 29 125 59 131 66 6 7 8 23 4 35 -11 33 -61 22 -224 -48 -10 -4 -12 -2 -6 6 10 17 85 50 150 67 77 21 203 18 241 -5 41 -25 304 -286 304 -302 0 -7 -14 0 -31 17 l-31 29 7 -45 c4 -25 8 -46 10 -48 1 -1 16 3 33 9 27 9 34 19 48 67 9 32 23 71 30 87 18 44 111 344 118 383 5 30 -8 46 -16 20 -2 -6 -18 13 -35 44 -21 37 -62 81 -123 134 -108 93 -117 99 -194 113 -69 13 -111 13 -180 -1z m64 -142 c0 -14 -42 -26 -94 -26 -17 0 -62 -8 -99 -19 -37 -10 -67 -16 -67 -14 0 20 26 42 62 51 69 18 80 20 141 21 42 1 57 -3 57 -13z m150 -10 c0 -18 -15 -36 -31 -36 -17 0 -18 3 -9 20 9 17 40 29 40 16z m35 -16 c3 -6 -1 -7 -9 -4 -18 7 -21 14 -7 14 6 0 13 -4 16 -10z m148 -104 c37 -30 45 -42 36 -52 -9 -11 -18 -8 -51 19 -22 17 -54 42 -71 55 -18 12 -32 28 -32 35 0 6 -4 18 -9 25 -10 17 69 -34 127 -82z m-375 -18 c-3 -8 -42 -18 -94 -26 -49 -6 -104 -17 -122 -23 -37 -12 -45 -9 -37 14 9 22 55 31 238 46 11 0 17 -4 15 -11z m285 -119 c59 -51 98 -111 107 -162 12 -62 -4 -50 -45 33 -22 44 -44 80 -49 80 -6 0 -21 11 -35 24 -15 14 -60 42 -102 64 -64 32 -75 41 -67 55 8 15 16 13 76 -17 37 -19 89 -53 115 -77z m-663 -191 c0 -23 -3 -29 -11 -21 -6 6 -8 20 -4 32 9 30 15 26 15 -11z"/>
<path d="M1325 4690 c3 -5 8 -10 11 -10 3 0 2 5 -1 10 -3 6 -8 10 -11 10 -3 0 -2 -4 1 -10z"/>
<path d="M4345 5038 c-85 -28 -149 -60 -74 -37 19 6 54 16 79 24 56 16 120 44 100 44 -8 0 -55 -14 -105 -31z"/>
<path d="M2215 4515 c50 -45 159 -117 263 -173 43 -24 119 -72 168 -106 49 -35 90 -62 92 -61 2 2 -19 38 -47 82 -27 43 -78 123 -113 179 l-63 101 -140 -1 c-77 -1 -153 2 -170 7 l-30 7 40 -35z"/>
<path d="M1431 4287 c-10 -29 -19 -37 -56 -47 -43 -12 -44 -14 -50 -59 -5 -45 -49 -274 -61 -318 -5 -19 -2 -23 15 -23 12 0 24 -7 27 -15 9 -24 30 -18 43 13 33 74 111 192 156 239 39 38 61 53 91 58 79 13 80 15 33 41 -93 53 -140 88 -135 101 3 7 0 13 -6 13 -6 0 -19 7 -29 16 -16 14 -18 13 -28 -19z"/>
<path d="M5120 3962 c-41 -21 -93 -45 -115 -52 -59 -19 -336 -142 -445 -198 -297 -154 -299 -155 -310 -185 -5 -16 -8 -32 -6 -36 14 -22 -60 -57 -140 -66 -32 -4 -69 -14 -82 -21 -21 -14 -21 -16 -6 -39 9 -14 12 -25 7 -25 -18 0 -42 25 -67 69 -24 44 -70 70 -122 71 -12 0 -27 7 -34 15 -7 9 -19 14 -27 11 -7 -3 -13 -1 -13 3 0 11 -56 31 -87 31 -13 0 -36 6 -51 14 -15 7 -39 16 -54 20 l-28 6 16 -32 c12 -25 45 -50 138 -105 66 -39 141 -82 165 -95 24 -12 53 -28 65 -35 11 -7 41 -15 65 -19 34 -5 46 -3 53 9 7 14 17 11 70 -23 34 -22 67 -40 75 -40 7 0 13 -4 13 -10 0 -5 12 -3 28 5 15 7 61 28 102 46 130 56 241 121 360 210 114 87 145 112 342 284 57 50 118 101 137 115 29 23 32 29 29 68 l-3 44 -75 -40z m-1385 -452 c3 -5 4 -10 1 -10 -3 0 -8 5 -11 10 -3 6 -4 10 -1 10 3 0 8 -4 11 -10z"/>
<path d="M5090 3780 c-58 -50 -133 -114 -167 -143 -34 -29 -62 -55 -62 -59 -1 -3 27 3 62 13 34 11 108 28 165 38 57 11 105 21 108 24 3 2 3 52 2 111 l-3 106 -105 -90z"/>
<path d="M1340 3735 c0 -8 -5 -15 -12 -15 -6 0 -8 -3 -5 -6 8 -8 37 14 37 27 0 5 -4 9 -10 9 -5 0 -10 -7 -10 -15z"/>
<path d="M1290 3658 c-24 -13 -63 -46 -86 -75 -35 -43 -44 -63 -54 -123 -14 -83 -7 -178 20 -290 l18 -75 1 51 c3 170 67 374 140 453 35 37 36 41 18 64 -11 16 -15 16 -57 -5z"/>
<path d="M1344 3588 c-63 -76 -89 -179 -79 -316 8 -106 19 -105 28 3 9 101 33 173 72 212 45 45 63 42 26 -4 -17 -21 -37 -58 -46 -83 -21 -57 -40 -280 -31 -344 l8 -50 34 65 c19 35 57 86 84 114 l50 50 -2 90 c0 50 2 108 6 130 6 38 4 42 -51 103 -33 34 -62 62 -65 62 -3 0 -19 -15 -34 -32z"/>
<path d="M5065 3605 c-189 -37 -233 -55 -341 -134 -55 -42 -113 -85 -128 -96 l-28 -20 77 -3 c43 -1 107 -9 144 -18 63 -14 253 -18 369 -6 l42 4 0 144 0 144 -32 -1 c-18 0 -64 -7 -103 -14z"/>
<path d="M1516 3446 c-7 -39 -10 -155 -4 -162 3 -2 18 32 35 76 l31 80 -28 20 -28 20 -6 -34z"/>
<path d="M1571 3369 c-13 -28 -21 -53 -18 -55 2 -2 26 12 52 33 l48 36 -23 19 c-12 10 -26 18 -30 18 -4 0 -17 -23 -29 -51z"/>
<path d="M1650 3352 c-14 -9 -52 -40 -84 -69 -33 -29 -63 -53 -67 -53 -10 0 -94 -120 -118 -168 -38 -77 -61 -173 -80 -334 -21 -177 -31 -211 -122 -388 -50 -98 -105 -235 -113 -282 -4 -21 -18 -51 -32 -67 -53 -64 -75 -155 -74 -316 0 -182 40 -383 104 -527 34 -77 41 -74 10 4 -62 157 -87 304 -88 503 -1 150 2 178 22 242 12 40 26 74 30 77 5 3 6 -56 4 -130 -6 -183 10 -294 59 -413 45 -110 129 -264 202 -371 57 -84 179 -242 183 -237 2 1 -2 49 -8 105 -37 341 114 682 356 801 62 30 70 32 93 20 14 -8 36 -12 49 -11 41 6 26 -5 -32 -24 -115 -36 -222 -172 -290 -372 -46 -133 -45 -167 2 -83 148 266 395 434 615 419 61 -5 69 -3 65 11 -12 45 -16 91 -8 91 14 0 22 -26 22 -75 0 -42 18 -75 42 -75 6 0 8 -9 5 -20 -4 -15 0 -20 16 -20 20 -1 21 -2 5 -14 -27 -20 -23 -30 32 -79 62 -56 88 -63 143 -38 l42 19 -35 1 c-79 2 -146 84 -170 208 -21 108 20 243 91 296 15 11 33 17 40 15 9 -3 2 -11 -17 -21 -42 -22 -66 -83 -66 -169 -1 -91 14 -126 59 -134 33 -6 33 -7 14 -21 -25 -17 -29 -74 -7 -93 21 -16 56 -9 72 15 11 17 11 25 -2 50 -46 87 -39 177 14 196 19 7 26 3 43 -24 23 -37 20 -108 -6 -137 -19 -20 -19 -50 -2 -74 13 -18 15 -17 54 3 45 22 62 53 42 77 -10 12 -8 19 10 37 11 13 21 28 21 33 0 6 7 19 16 30 14 18 15 14 11 -46 -6 -76 -40 -148 -96 -197 l-36 -33 35 -1 c34 -1 35 -1 10 -12 -14 -7 -26 -18 -28 -25 -2 -10 3 -9 20 2 13 7 37 16 53 20 27 6 28 5 13 -7 -10 -8 -18 -18 -18 -22 0 -4 6 -3 13 2 6 6 24 13 38 16 14 4 46 25 72 47 46 41 75 105 93 202 3 21 10 35 15 32 13 -8 11 -112 -5 -169 -24 -92 -41 -113 -138 -165 -71 -38 -81 -67 -17 -45 49 18 49 18 49 6 0 -4 -20 -14 -45 -21 -52 -15 -55 -17 -85 -93 -13 -33 -47 -98 -77 -145 l-54 -87 53 55 c96 101 247 319 317 458 61 120 84 196 85 284 1 43 4 78 9 78 19 0 30 -64 31 -173 0 -64 3 -112 7 -105 4 7 29 81 57 164 137 406 166 660 106 902 -21 86 -59 162 -81 162 -23 0 -449 95 -543 121 -41 12 -106 30 -145 41 -157 45 -333 117 -574 234 -140 68 -259 124 -265 123 -6 0 -22 -8 -36 -17z m458 -219 c-16 -2 -28 -6 -28 -8 0 -18 47 -104 81 -148 51 -66 146 -118 244 -136 59 -11 265 -22 265 -14 0 14 -52 103 -60 103 -6 0 -10 7 -10 15 0 41 52 -3 79 -66 29 -66 38 -148 21 -189 -7 -17 -33 -45 -58 -62 -44 -30 -46 -31 -136 -25 -111 7 -188 27 -284 72 -85 40 -251 152 -260 174 -3 9 -23 36 -44 61 -55 67 -56 112 -3 164 53 50 91 66 160 64 33 0 48 -3 33 -5z m266 -92 c9 -14 -20 -32 -39 -25 -17 7 -17 8 1 21 21 15 31 16 38 4z m-704 -538 c0 -22 -2 -25 -10 -13 -13 20 -13 40 0 40 6 0 10 -12 10 -27z m-246 -29 c4 -10 1 -14 -6 -12 -15 5 -23 28 -10 28 5 0 13 -7 16 -16z m63 -1 c-4 -3 -7 0 -7 7 0 7 3 10 7 7 3 -4 3 -10 0 -14z m108 -33 c23 -24 25 -30 12 -30 -25 0 -67 29 -67 46 0 23 24 16 55 -16z m-98 -14 c-16 -12 -35 -36 -44 -52 -17 -32 -32 -216 -17 -213 5 1 11 0 14 -1 11 -4 47 -10 75 -13 21 -1 30 2 30 13 0 9 -9 15 -22 14 -26 -1 -43 37 -33 76 9 39 54 40 74 1 17 -32 22 -91 8 -91 -11 0 -32 -46 -32 -70 0 -13 7 -20 20 -20 27 0 62 57 57 92 -2 15 1 26 7 25 6 -1 12 9 14 23 2 14 7 29 11 33 4 4 4 -20 -1 -55 -10 -72 -37 -134 -79 -179 -27 -29 -33 -31 -79 -27 -27 3 -57 11 -66 19 -52 43 -79 203 -50 300 18 63 45 103 90 130 43 26 57 23 23 -5z m-191 -88 c-8 -24 -19 -56 -25 -71 -20 -50 -13 -112 19 -179 35 -73 52 -94 98 -127 65 -46 170 -19 257 66 31 30 59 53 62 50 3 -3 -8 -17 -23 -31 -26 -22 -27 -25 -9 -26 15 0 5 -15 -45 -66 -36 -36 -74 -70 -84 -76 -11 -6 -52 -13 -92 -15 -57 -4 -78 -2 -102 12 -27 17 -31 17 -53 1 -13 -9 -31 -16 -41 -16 -25 0 -24 46 1 61 17 11 16 14 -15 41 -40 36 -84 122 -83 162 1 28 3 25 18 -19 13 -43 60 -131 61 -115 0 3 -9 34 -20 70 -11 36 -20 81 -20 100 0 48 83 220 106 220 2 0 -3 -19 -10 -42z m354 -12 c0 -39 -6 -31 -14 19 -5 29 -4 36 3 25 6 -8 11 -28 11 -44z m-113 -33 c-4 -3 -7 0 -7 7 0 7 3 10 7 7 3 -4 3 -10 0 -14z m1117 -289 c60 -27 85 -50 45 -42 -24 6 -119 39 -129 46 -3 2 19 21 26 22 1 0 27 -12 58 -26z m116 -115 c12 -22 19 -46 17 -52 -3 -9 -47 74 -47 89 0 14 13 -2 30 -37z m110 21 c0 -5 -7 -10 -16 -10 -8 0 -12 5 -9 10 3 6 10 10 16 10 5 0 9 -4 9 -10z m45 -50 c3 -5 -1 -10 -9 -10 -9 0 -16 5 -16 10 0 6 4 10 9 10 6 0 13 -4 16 -10z m-1390 -55 c-22 -8 -56 -13 -75 -13 -30 0 -28 2 13 8 27 5 52 11 55 14 3 3 15 6 26 5 13 -1 6 -6 -19 -14z m-426 -243 c32 -62 90 -122 139 -144 53 -24 51 -32 -3 -15 -47 14 -101 65 -137 129 -28 51 -68 163 -67 187 0 9 11 -13 23 -49 13 -36 33 -84 45 -108z"/>
<path d="M1463 2133 c-18 -7 -28 -70 -13 -88 35 -42 88 13 60 63 -16 27 -27 33 -47 25z"/>
<path d="M1270 2027 c0 -27 28 -57 53 -57 23 0 21 7 -9 47 -29 39 -44 42 -44 10z"/>
<path d="M831 3202 c-14 -26 -14 -72 0 -72 5 0 7 -5 4 -11 -4 -5 -2 -22 4 -37 6 -15 15 -40 21 -56 8 -21 14 -26 22 -18 8 8 6 15 -5 27 -9 8 -14 22 -10 31 3 8 -2 23 -11 33 -9 10 -13 21 -9 25 4 4 1 11 -7 16 -12 8 -13 15 -3 41 14 37 10 51 -6 21z"/>
<path d="M3706 3041 c-3 -5 1 -26 10 -47 34 -81 4 -248 -62 -347 l-27 -41 -14 40 c-17 48 -55 124 -65 130 -4 3 9 -29 28 -71 73 -159 72 -292 -4 -515 -55 -160 -175 -420 -276 -598 -20 -35 -36 -69 -36 -75 1 -39 213 368 279 536 86 217 127 422 103 510 -10 35 0 28 145 -113 85 -82 159 -150 164 -150 4 0 15 24 24 53 41 144 41 335 -1 467 -22 72 -33 91 -78 134 -74 72 -172 117 -190 87z"/>
<path d="M535 2924 c-16 -88 26 -205 103 -288 34 -35 172 -149 172 -141 0 7 -5 15 -106 170 -43 66 -84 137 -91 158 -15 42 -61 137 -67 137 -2 0 -7 -16 -11 -36z"/>
<path d="M4260 2919 c0 -6 18 -31 40 -56 54 -62 80 -147 80 -263 0 -49 -4 -92 -10 -95 -6 -4 -10 26 -10 82 0 137 -29 224 -94 281 -56 49 -66 37 -66 -76 0 -158 -59 -319 -161 -443 l-53 -62 50 -43 c27 -24 61 -48 76 -55 17 -7 25 -16 21 -25 -11 -30 20 -9 112 75 22 20 83 73 135 118 183 155 268 261 290 358 18 79 -5 116 -29 48 -8 -21 -36 -79 -62 -129 -40 -73 -60 -100 -107 -136 -76 -59 -77 -59 -104 -49 -22 9 -22 10 -2 10 35 1 69 97 69 196 0 93 -27 164 -90 234 -36 39 -85 57 -85 30z"/>
<path d="M3630 2868 c0 -34 14 -50 41 -46 34 4 30 29 -8 51 l-33 19 0 -24z"/>
<path d="M1100 2830 c0 -7 3 -10 7 -7 3 4 3 10 0 14 -4 3 -7 0 -7 -7z"/>
<path d="M3365 2763 c53 -108 67 -167 74 -308 l6 -129 32 134 c18 74 35 150 38 168 5 33 4 33 -30 30 -35 -3 -35 -3 -75 82 -27 59 -45 86 -59 88 -18 3 -17 -3 14 -65z"/>
<path d="M3396 2813 c6 -4 24 -36 39 -70 20 -45 33 -63 47 -63 22 0 38 36 38 86 0 25 4 33 13 28 8 -5 9 -4 2 4 -5 6 -41 14 -80 17 -38 4 -65 3 -59 -2z"/>
<path d="M3630 2755 c0 -32 4 -45 14 -45 22 0 36 24 33 58 -2 26 -6 32 -24 32 -21 0 -23 -5 -23 -45z"/>
<path d="M4030 2689 c1 -13 6 -34 13 -46 12 -22 13 -22 41 -4 16 11 34 17 41 15 6 -3 17 2 24 10 11 13 7 16 -26 25 -96 25 -93 25 -93 0z"/>
<path d="M5110 2675 c-36 -7 -95 -16 -132 -20 l-66 -7 58 -53 c74 -68 209 -175 221 -175 5 0 9 58 9 135 0 102 -3 135 -12 134 -7 0 -42 -7 -78 -14z"/>
<path d="M4665 2623 c-17 -26 -20 -53 -5 -53 19 0 25 -2 65 -25 73 -43 441 -171 466 -163 6 2 -29 33 -78 70 -48 36 -119 94 -157 129 l-70 64 -103 0 c-96 0 -105 -2 -118 -22z"/>
<path d="M4750 2377 c18 -16 123 -62 163 -71 52 -12 26 12 -53 48 -82 37 -139 49 -110 23z"/>
<path d="M4874 2274 c4 -15 2 -32 -6 -41 -10 -12 -9 -18 7 -29 24 -18 104 -18 128 1 18 13 18 14 -2 25 -12 6 -21 18 -21 26 0 16 -57 44 -91 44 -18 0 -20 -4 -15 -26z"/>
<path d="M4278 2232 l-66 -57 16 -28 c9 -15 33 -44 54 -64 36 -35 40 -37 111 -37 71 -1 75 -2 150 -53 72 -49 187 -106 196 -97 2 2 -15 27 -37 56 -43 56 -334 338 -349 338 -4 0 -38 -26 -75 -58z"/>
<path d="M692 2163 c-10 -16 -24 -44 -31 -63 -17 -47 -25 -205 -14 -255 9 -39 10 -37 17 40 8 86 26 181 50 258 16 53 7 61 -22 20z"/>
<path d="M3321 2154 c0 -11 3 -14 6 -6 3 7 2 16 -1 19 -3 4 -6 -2 -5 -13z"/>
<path d="M4143 2118 c-34 -36 -45 -59 -68 -137 -39 -138 -121 -331 -206 -483 -62 -110 -209 -329 -277 -413 l-50 -60 56 -52 c31 -29 59 -53 62 -53 3 0 26 24 51 53 100 114 147 184 174 257 71 192 188 423 267 528 43 57 43 59 53 175 7 80 -2 227 -14 227 -4 0 -25 -19 -48 -42z"/>
<path d="M3305 2091 c-18 -106 -154 -495 -235 -670 -23 -49 -31 -75 -20 -61 11 14 34 40 52 58 17 18 24 30 15 26 -18 -6 -24 10 -8 21 5 3 12 18 16 34 3 16 15 39 26 52 10 12 19 32 19 44 0 13 7 28 15 35 8 6 24 37 35 68 11 32 24 64 27 72 4 8 7 23 8 32 1 10 7 23 13 30 10 13 33 109 37 158 1 14 5 39 9 55 13 62 15 75 6 80 -4 3 -11 -13 -15 -34z"/>
<path d="M4940 2121 c-12 -9 -12 -11 2 -16 24 -9 113 -1 113 10 0 13 -96 18 -115 6z"/>
<path d="M4616 2108 c5 -7 30 -40 57 -72 27 -32 60 -76 73 -98 22 -35 28 -38 68 -38 99 0 237 -66 341 -161 52 -48 60 -47 13 2 -32 35 -74 116 -64 126 9 10 -212 150 -319 203 -67 34 -112 50 -138 50 -28 0 -36 -3 -31 -12z"/>
<path d="M3983 1967 c-43 -47 -89 -125 -79 -135 10 -9 90 80 110 121 27 58 15 64 -31 14z"/>
<path d="M3802 1938 c-40 -54 -72 -87 -72 -73 0 5 8 17 17 27 10 11 13 22 7 27 -17 15 -88 20 -111 8 -29 -16 -101 -84 -113 -108 -9 -16 -4 -15 37 6 47 24 107 30 218 22 25 -2 34 5 63 47 62 93 20 133 -46 44z"/>
<path d="M3376 1855 c-25 -46 -66 -133 -66 -141 0 -2 6 -4 14 -4 13 0 38 45 72 130 24 60 11 70 -20 15z"/>
<path d="M5155 1870 c16 -16 32 -30 37 -30 4 0 8 14 8 30 0 28 -3 30 -37 30 l-37 0 29 -30z"/>
<path d="M3485 1844 c-36 -48 -44 -74 -22 -74 13 1 70 73 80 103 12 34 -22 17 -58 -29z"/>
<path d="M4329 1823 c-42 -48 -201 -283 -255 -378 l-28 -50 59 65 c99 109 146 149 183 160 34 9 37 7 74 -33 43 -46 88 -121 109 -179 7 -21 16 -38 19 -38 3 0 21 28 40 63 50 94 190 300 198 292 3 -2 -19 -41 -48 -86 -47 -74 -50 -85 -39 -106 7 -12 15 -23 18 -23 8 0 82 114 111 169 12 24 18 47 13 51 -29 25 -359 140 -402 140 -5 0 -28 -21 -52 -47z"/>
<path d="M870 1758 c0 -7 11 -35 25 -63 18 -36 23 -42 18 -20 -12 58 -43 118 -43 83z"/>
<path d="M2620 1702 c0 -27 21 -44 37 -31 9 8 10 16 2 30 -12 24 -39 25 -39 1z"/>
<path d="M3087 1671 c-4 -19 -5 -36 -2 -39 10 -11 16 7 13 40 l-3 33 -8 -34z"/>
<path d="M3800 1541 c-52 -85 -125 -201 -162 -257 -113 -171 -161 -288 -93 -224 37 35 196 265 263 382 94 163 101 178 93 219 -6 36 -6 36 -101 -120z"/>
<path d="M2320 1650 c0 -5 5 -10 11 -10 5 0 7 5 4 10 -3 6 -8 10 -11 10 -2 0 -4 -4 -4 -10z"/>
<path d="M2375 1620 c3 -5 8 -10 11 -10 3 0 2 5 -1 10 -3 6 -8 10 -11 10 -3 0 -2 -4 1 -10z"/>
<path d="M4335 1555 c-32 -100 -74 -165 -165 -260 -120 -123 -225 -245 -270 -309 -27 -40 -31 -52 -21 -65 6 -9 21 -31 32 -48 26 -41 41 -42 188 -3 63 17 116 28 119 26 11 -11 -131 -60 -208 -71 -73 -11 -80 -14 -80 -42 l0 -26 68 7 c110 11 240 42 367 86 66 23 134 43 150 44 28 3 30 5 33 51 3 45 -24 191 -65 355 -18 71 -79 198 -117 245 -23 28 -25 29 -31 10z m22 -437 c26 -29 46 -68 36 -68 -5 0 -17 13 -26 29 -10 17 -26 33 -36 36 -27 8 -203 -81 -318 -162 -51 -35 -93 -59 -93 -54 0 33 342 240 396 241 11 0 30 -10 41 -22z"/>
<path d="M2321 1481 c-10 -17 -10 -26 0 -37 6 -8 9 -18 5 -21 -4 -4 -11 -1 -15 6 -5 7 -14 10 -20 7 -13 -9 -71 -98 -101 -155 -12 -25 -38 -52 -63 -67 -70 -44 -250 -233 -311 -327 -66 -101 -106 -187 -105 -225 0 -21 4 -16 18 24 36 107 133 244 283 399 132 138 150 147 105 58 -52 -103 -79 -164 -74 -169 2 -2 21 22 42 53 20 32 97 117 169 188 145 142 164 175 124 211 -11 11 -26 32 -33 48 -13 29 -13 29 -24 7z"/>
<path d="M2393 1474 c-7 -19 21 -44 49 -44 25 0 23 26 -4 44 -28 20 -37 20 -45 0z"/>
<path d="M3545 1418 c-2 -7 -13 -37 -24 -67 -11 -30 -19 -56 -17 -58 2 -2 20 28 40 67 29 55 34 70 21 70 -8 0 -18 -6 -20 -12z"/>
<path d="M2563 1403 c4 -3 10 -3 14 0 3 4 0 7 -7 7 -7 0 -10 -3 -7 -7z"/>
<path d="M2530 1390 c-9 -6 -10 -10 -3 -10 6 0 15 5 18 10 8 12 4 12 -15 0z"/>
<path d="M2713 1393 c4 -3 10 -3 14 0 3 4 0 7 -7 7 -7 0 -10 -3 -7 -7z"/>
<path d="M3005 1369 c-4 -6 -5 -12 -2 -15 2 -3 7 2 10 11 7 17 1 20 -8 4z"/>
<path d="M3960 1346 c-5 -14 -19 -47 -30 -72 -28 -61 -19 -67 14 -10 14 24 33 52 42 60 14 15 14 17 0 32 -15 14 -17 13 -26 -10z"/>
<path d="M1793 1330 c-37 -22 -56 -52 -47 -74 9 -23 21 -20 40 12 9 15 25 39 36 55 22 32 15 34 -29 7z"/>
<path d="M1907 1341 c-29 -6 -67 -54 -67 -83 0 -20 26 -25 32 -6 2 6 25 13 51 14 26 2 56 8 68 14 11 7 24 9 27 5 3 -3 -4 -8 -16 -12 -20 -5 -26 -15 -23 -35 0 -4 -6 -5 -14 -2 -8 4 -15 1 -15 -5 0 -15 23 -14 46 4 15 11 16 15 4 15 -8 1 0 9 19 18 19 9 45 32 59 49 l24 33 -28 -15 c-31 -15 -118 -10 -108 6 6 10 -16 10 -59 0z"/>
<path d="M2663 1343 c4 -3 10 -3 14 0 3 4 0 7 -7 7 -7 0 -10 -3 -7 -7z"/>
<path d="M2931 1308 c-27 -28 -30 -34 -15 -37 10 -2 24 5 31 15 8 11 18 19 23 19 6 0 10 3 10 8 0 4 0 12 0 17 0 18 -17 10 -49 -22z m44 12 c3 -5 4 -10 1 -10 -3 0 -8 5 -11 10 -3 6 -4 10 -1 10 3 0 8 -4 11 -10z"/>
<path d="M2518 1323 c7 -3 16 -2 19 1 4 3 -2 6 -13 5 -11 0 -14 -3 -6 -6z"/>
<path d="M2544 1308 c-4 -7 -3 -8 4 -4 12 7 16 16 8 16 -3 0 -8 -5 -12 -12z"/>
<path d="M2393 1279 c-42 -27 -41 -35 3 -44 37 -7 64 8 85 47 8 16 5 18 -23 18 -18 0 -48 -10 -65 -21z"/>
<path d="M2594 1283 c-35 -7 -88 -57 -81 -76 10 -27 25 -21 80 33 49 47 50 53 1 43z"/>
<path d="M1953 1253 c4 -3 10 -3 14 0 3 4 0 7 -7 7 -7 0 -10 -3 -7 -7z"/>
<path d="M2020 1251 c0 -6 4 -13 10 -16 6 -3 7 1 4 9 -7 18 -14 21 -14 7z"/>
<path d="M2117 1243 c-4 -3 -7 -11 -7 -17 0 -6 5 -5 12 2 6 6 9 14 7 17 -3 3 -9 2 -12 -2z"/>
<path d="M3963 1238 c-20 -26 -26 -41 -15 -34 12 7 36 46 29 46 -3 0 -9 -6 -14 -12z"/>
<path d="M2236 1157 c-114 -117 -127 -137 -97 -137 13 0 21 7 21 17 0 21 47 83 64 83 7 0 22 18 34 39 18 31 27 38 45 35 12 -2 16 -1 9 2 -10 5 -10 10 4 25 9 10 13 19 9 19 -5 0 -45 -37 -89 -83z"/>
<path d="M1790 1218 c0 -10 27 -10 34 0 2 4 -4 8 -15 8 -10 0 -19 -4 -19 -8z"/>
<path d="M2973 1217 c-41 -15 -52 -27 -25 -27 20 0 150 -38 225 -66 47 -17 45 -18 50 4 4 13 5 12 6 -4 1 -17 22 -33 94 -70 50 -26 133 -75 183 -109 86 -58 94 -62 130 -55 22 4 34 8 28 9 -5 0 -55 35 -109 76 -115 87 -196 131 -316 173 -47 17 -109 42 -139 56 -59 28 -79 30 -127 13z"/>
<path d="M3934 1141 c-34 -40 -71 -96 -82 -124 -11 -29 -23 -60 -27 -69 -5 -13 -2 -18 8 -18 9 0 19 9 22 20 6 18 85 129 150 207 15 18 20 30 12 27 -10 -3 -17 1 -19 12 -2 13 -20 -2 -64 -55z"/>
<path d="M1808 1193 c7 -3 16 -2 19 1 4 3 -2 6 -13 5 -11 0 -14 -3 -6 -6z"/>
<path d="M3924 1178 c-4 -7 -3 -8 4 -4 12 7 16 16 8 16 -3 0 -8 -5 -12 -12z"/>
<path d="M2792 1084 c-51 -53 -91 -99 -89 -101 2 -2 17 1 33 7 24 8 26 8 12 -2 -9 -7 -30 -21 -47 -30 -17 -9 -49 -45 -71 -80 l-40 -63 63 -16 c35 -9 88 -19 118 -22 53 -7 55 -6 73 24 10 17 43 58 73 92 116 131 196 142 456 59 86 -27 157 -48 157 -47 0 8 -185 108 -275 150 -98 46 -270 107 -335 119 -34 6 -38 4 -128 -90z"/>
<path d="M765 1119 c-4 -22 -3 -45 1 -49 12 -12 104 -51 104 -44 0 7 -90 134 -95 134 -2 0 -6 -18 -10 -41z"/>
<path d="M2574 1123 c-15 -20 -23 -33 -16 -29 13 8 56 66 49 66 -3 0 -17 -17 -33 -37z"/>
<path d="M3904 1148 c-4 -7 -3 -8 4 -4 12 7 16 16 8 16 -3 0 -8 -5 -12 -12z"/>
<path d="M1761 1073 c-1 -17 16 -25 25 -12 4 7 3 9 -4 5 -5 -3 -13 0 -15 6 -4 9 -6 10 -6 1z"/>
<path d="M1703 1053 c4 -3 10 -3 14 0 3 4 0 7 -7 7 -7 0 -10 -3 -7 -7z"/>
<path d="M2349 1043 c-13 -16 -12 -17 4 -4 16 13 21 21 13 21 -2 0 -10 -8 -17 -17z"/>
<path d="M3800 1042 c0 -4 -26 -35 -58 -70 -60 -65 -63 -72 -16 -47 16 8 38 15 49 15 16 0 24 10 33 45 15 55 15 65 2 65 -5 0 -10 -3 -10 -8z"/>
<path d="M2279 1027 c-13 -10 -33 -47 -26 -47 2 0 13 14 25 30 25 33 25 35 1 17z"/>
<path d="M2304 998 l-19 -23 23 19 c21 18 27 26 19 26 -2 0 -12 -10 -23 -22z"/>
<path d="M2094 998 c-4 -7 -3 -8 4 -4 12 7 16 16 8 16 -3 0 -8 -5 -12 -12z"/>
<path d="M883 993 c4 -3 10 -3 14 0 3 4 0 7 -7 7 -7 0 -10 -3 -7 -7z"/>
<path d="M3024 961 c-45 -21 -94 -77 -94 -108 0 -35 31 -52 97 -55 36 -1 67 3 75 10 8 6 23 10 34 8 14 -3 20 1 20 15 0 11 -4 15 -9 10 -6 -6 -16 -6 -26 -1 -9 5 -37 12 -62 15 -26 3 -55 13 -65 21 -17 14 -15 14 26 7 94 -17 424 -3 404 17 -5 4 -60 24 -123 44 -133 42 -212 47 -277 17z"/>
<path d="M3792 898 c2 -18 11 -24 36 -26 41 -4 41 12 0 32 -40 20 -40 20 -36 -6z"/>
<path d="M1773 903 c4 -3 10 -3 14 0 3 4 0 7 -7 7 -7 0 -10 -3 -7 -7z"/>
<path d="M3325 850 c-16 -4 -22 -8 -13 -9 9 0 21 -8 26 -17 12 -22 51 -14 70 14 14 21 13 22 -19 21 -19 -1 -47 -5 -64 -9z"/>
<path d="M3586 848 c7 -11 42 -10 49 2 4 6 -5 10 -24 8 -16 -1 -27 -6 -25 -10z"/>
<path d="M3248 843 c6 -2 18 -2 25 0 6 3 1 5 -13 5 -14 0 -19 -2 -12 -5z"/>
<path d="M2840 728 c-88 -172 -115 -283 -103 -415 l6 -63 43 0 c23 0 45 3 48 8 2 4 -1 26 -7 50 -9 34 -17 44 -44 53 -18 6 -33 15 -33 20 0 6 9 8 19 4 87 -27 231 -32 356 -10 118 21 172 51 352 196 82 66 88 74 93 115 3 24 5 44 3 44 -1 0 -21 -13 -45 -29 -35 -23 -183 -118 -308 -197 -14 -9 -5 3 20 26 24 23 81 65 125 94 44 29 112 74 151 99 39 25 76 58 83 73 10 24 10 26 -6 19 -10 -4 -63 -11 -118 -16 -55 -4 -138 -13 -185 -19 -196 -23 -360 -8 -376 35 -3 8 -10 15 -14 15 -5 0 -32 -46 -60 -102z"/>
<path d="M3508 823 c6 -2 18 -2 25 0 6 3 1 5 -13 5 -14 0 -19 -2 -12 -5z"/>
<path d="M3303 813 c4 -3 10 -3 14 0 3 4 0 7 -7 7 -7 0 -10 -3 -7 -7z"/>
<path d="M3861 794 c0 -11 3 -14 6 -6 3 7 2 16 -1 19 -3 4 -6 -2 -5 -13z"/>
<path d="M775 763 c7 -39 61 -203 70 -211 3 -3 15 8 27 24 12 16 42 48 67 71 25 23 43 44 40 46 -2 2 -51 27 -108 56 l-104 53 8 -39z"/>
<path d="M2567 765 c-19 -39 -21 -37 64 -49 31 -4 38 -1 47 19 10 22 8 25 -26 36 -20 6 -41 15 -46 20 -16 15 -21 11 -39 -26z"/>
<path d="M3807 774 c-8 -16 -38 -54 -66 -84 -28 -30 -51 -56 -51 -57 0 -2 6 -3 14 -3 17 0 105 97 117 129 15 38 4 50 -14 15z"/>
<path d="M3676 753 c-3 -4 -1 -12 5 -20 13 -15 59 -18 59 -4 0 11 -56 32 -64 24z"/>
<path d="M3850 750 c0 -7 3 -10 7 -7 3 4 3 10 0 14 -4 3 -7 0 -7 -7z"/>
<path d="M3660 720 c0 -7 3 -10 7 -7 3 4 3 10 0 14 -4 3 -7 0 -7 -7z"/>
<path d="M3805 700 c-4 -6 7 -10 25 -10 18 0 29 4 25 10 -3 6 -15 10 -25 10 -10 0 -22 -4 -25 -10z"/>
<path d="M3683 693 c4 -3 10 -3 14 0 3 4 0 7 -7 7 -7 0 -10 -3 -7 -7z"/>
<path d="M1704 619 c-3 -6 -1 -16 5 -22 8 -8 11 -5 11 11 0 24 -5 28 -16 11z"/>
<path d="M2665 484 c-22 -18 -70 -49 -107 -68 -36 -19 -63 -38 -60 -42 4 -4 1 -4 -6 0 -7 4 -18 3 -25 -2 -7 -5 -29 -12 -49 -16 -21 -4 -40 -11 -42 -15 -6 -9 35 -1 207 40 88 20 100 26 113 51 8 16 14 42 12 58 l-3 28 -40 -34z"/>
<path d="M3364 455 c-10 -8 -14 -15 -8 -15 6 0 17 7 24 15 16 19 9 19 -16 0z"/>
<path d="M3175 366 c-39 -12 -57 -39 -38 -56 15 -15 81 20 86 46 2 13 1 24 -2 23 -3 -1 -24 -7 -46 -13z"/>
</g>
<g id="layer104" fill="#e1c4a5" stroke="none">
<path d="M0 2600 l0 -2600 2600 0 2600 0 0 829 0 829 -69 64 c-64 59 -172 128 -200 128 -7 0 -1 -15 12 -32 89 -120 136 -281 117 -403 -6 -44 -7 -40 -9 42 -1 124 -34 228 -105 331 -49 73 -54 77 -99 86 -27 4 -50 6 -53 3 -3 -3 1 -20 10 -39 33 -74 46 -112 66 -205 47 -214 14 -385 -126 -665 -96 -191 -207 -352 -373 -538 -124 -138 -342 -359 -377 -380 -30 -19 -47 -20 -239 -18 l-208 3 -37 105 c-47 134 -99 262 -110 274 -5 5 -33 -13 -67 -43 -32 -28 -74 -59 -94 -68 -36 -16 -36 -16 -66 -142 l-29 -126 -1016 0 -1017 0 -35 40 c-19 22 -59 73 -88 112 -29 40 -58 73 -64 73 -9 0 -36 -30 -69 -78 -2 -2 -14 -5 -29 -8 -19 -3 -26 0 -26 11 0 8 4 15 9 15 4 0 30 33 56 73 81 121 134 185 181 218 67 46 75 33 77 -112 1 -66 6 -114 12 -113 28 3 45 53 54 159 5 61 12 118 16 128 6 13 -1 20 -27 31 -19 8 -41 22 -48 31 -18 21 -64 45 -88 45 -18 0 -121 -100 -175 -170 -23 -31 -28 -33 -40 -20 -24 25 -58 128 -82 250 -16 79 -28 118 -40 125 -104 62 -231 153 -278 198 -67 65 -116 158 -124 239 -6 62 19 197 45 242 20 34 51 51 37 20 -5 -11 -10 -40 -13 -66 -5 -64 39 -145 128 -234 64 -63 191 -154 216 -154 6 0 17 27 23 61 l12 60 -55 97 c-129 227 -176 372 -176 542 0 124 18 180 79 240 26 25 54 58 64 73 10 16 31 33 46 38 19 7 34 24 48 55 l21 46 -27 47 c-33 56 -94 139 -173 237 -122 151 -155 238 -145 382 3 42 14 101 25 130 19 49 19 57 6 94 -18 52 -18 114 0 167 l15 41 -75 -7 c-53 -4 -74 -3 -74 6 0 10 23 13 150 17 25 0 55 2 66 3 12 0 55 34 96 74 42 39 93 88 114 108 66 61 67 65 36 89 -44 35 -121 17 -244 -59 -58 -35 -45 -8 13 30 29 18 46 35 40 37 -7 2 -18 -1 -23 -6 -7 -7 -18 -8 -27 -3 -33 18 -171 45 -180 35 -4 -5 -18 -26 -30 -46 l-23 -38 64 -1 c35 -1 74 -5 88 -9 32 -10 22 -12 -77 -10 l-82 1 -31 -60 c-36 -72 -38 -116 -8 -148 26 -28 6 -31 -22 -3 -37 37 -27 98 35 218 l55 107 -29 8 c-36 9 -71 51 -71 84 0 52 67 153 102 153 16 0 17 3 7 21 -20 38 -2 84 52 133 28 25 54 46 58 46 3 0 7 14 8 31 4 49 49 115 108 159 30 22 55 45 55 51 0 5 -7 20 -15 33 -8 12 -19 44 -24 70 -8 41 -3 65 35 197 24 82 44 155 44 163 0 7 -28 50 -63 95 -108 143 -127 173 -127 197 l0 24 -240 0 -240 0 0 -2600z m614 2350 c8 -8 2 -19 -63 -101 -34 -43 -71 -59 -163 -69 -96 -11 -128 -6 -128 22 0 63 107 149 195 156 37 3 55 1 55 -7 0 -6 -16 -11 -35 -11 -41 0 -95 -20 -133 -50 -27 -22 -62 -68 -62 -84 0 -5 37 -7 83 -4 102 5 150 27 193 88 33 48 34 60 4 60 -10 0 -22 5 -26 11 -8 14 65 3 80 -11z m-323 -1939 c-30 -42 -61 -118 -61 -150 0 -42 97 -195 178 -282 40 -42 135 -126 212 -185 77 -59 138 -110 135 -112 -6 -6 -211 148 -304 228 -99 85 -241 292 -241 350 0 31 33 104 66 147 31 41 43 44 15 4z m-151 -2574 c0 -13 -55 -39 -64 -29 -4 3 1 14 11 24 19 21 53 24 53 5z m675 -57 c-9 -18 -19 -58 -22 -89 -7 -81 -12 -91 -28 -61 -8 14 -15 32 -15 40 -1 31 44 150 57 150 7 0 14 6 14 13 1 6 3 4 6 -5 2 -9 -3 -31 -12 -48z m-784 -43 c-15 -15 -21 -5 -14 22 5 21 7 21 16 6 6 -11 5 -21 -2 -28z m247 -44 c-5 -25 -28 -28 -28 -4 0 12 6 21 16 21 9 0 14 -7 12 -17z m158 -119 c-4 -9 -9 -15 -11 -12 -3 3 -3 13 1 22 4 9 9 15 11 12 3 -3 3 -13 -1 -22z m2904 -96 c10 -17 17 -35 14 -40 -7 -12 -92 -10 -99 2 -8 14 33 70 51 70 8 0 23 -14 34 -32z"/>
<path d="M4250 5125 c-7 -42 -10 -78 -7 -81 3 -3 63 13 134 36 70 23 196 59 278 80 l150 38 -271 1 -271 1 -13 -75z"/>
<path d="M2785 5129 c9 -31 4 -27 52 -35 36 -5 42 -4 48 16 9 28 7 30 -55 37 -52 6 -52 6 -45 -18z"/>
<path d="M2430 5106 c0 -47 113 -167 191 -203 49 -22 234 -71 289 -75 l35 -3 92 -265 c50 -146 104 -301 121 -345 16 -44 51 -138 77 -210 59 -163 70 -187 94 -202 24 -15 31 -39 -87 302 -241 696 -254 728 -295 745 -12 4 -84 25 -160 46 -152 41 -192 62 -294 158 -35 32 -63 55 -63 52z"/>
<path d="M2064 5076 c4 -16 14 -39 22 -50 13 -20 14 -19 14 10 0 19 -8 38 -21 50 l-22 19 7 -29z"/>
<path d="M2132 4988 c-9 -9 -7 -17 10 -35 12 -13 27 -23 34 -23 18 0 44 39 37 56 -6 17 -64 19 -81 2z"/>
<path d="M1126 4964 c-8 -22 -9 -21 26 -33 32 -11 47 -3 48 25 0 26 -65 33 -74 8z"/>
<path d="M791 4913 c-20 -19 -40 -57 -60 -115 -16 -49 -27 -88 -25 -88 16 0 65 33 74 49 14 27 13 31 -10 31 -28 0 -25 11 20 71 55 74 56 103 1 52z"/>
<path d="M3044 4916 c47 -108 71 -172 101 -276 31 -105 86 -250 70 -184 -3 12 -25 112 -50 223 -24 111 -49 210 -54 220 -11 20 -76 36 -67 17z"/>
<path d="M1506 4826 c-8 -14 -19 -42 -23 -63 -10 -47 -5 -213 6 -213 4 0 18 33 30 73 13 39 30 92 38 116 12 38 12 46 -2 61 -8 9 -15 22 -15 28 0 22 -18 21 -34 -2z"/>
<path d="M2636 4822 c26 -25 48 -32 130 -47 55 -9 104 -19 110 -20 6 -2 15 -21 18 -42 10 -51 36 -134 86 -273 23 -63 55 -151 70 -195 46 -129 79 -214 94 -243 14 -28 56 -71 56 -58 0 4 -51 152 -113 329 -63 177 -126 361 -140 408 -15 48 -33 91 -39 96 -11 9 -186 52 -278 70 -25 4 -24 4 6 -25z"/>
<path d="M1070 4810 c-9 -17 -7 -22 14 -31 31 -14 56 -6 56 20 0 34 -53 43 -70 11z"/>
<path d="M940 4580 c0 -19 4 -20 38 -15 l37 6 -50 -30 c-27 -17 -63 -36 -79 -42 -82 -34 -254 -124 -289 -151 -52 -42 -97 -105 -97 -136 0 -19 23 -48 90 -112 50 -47 90 -93 90 -102 0 -8 -35 19 -78 62 -43 43 -91 85 -105 95 -27 17 -27 17 -63 -20 -57 -61 -67 -81 -60 -120 6 -31 15 -39 99 -85 51 -27 97 -51 102 -53 6 -3 7 -7 4 -11 -4 -4 -55 18 -114 49 l-108 56 -24 -23 c-31 -29 -48 -62 -57 -109 -8 -44 7 -59 67 -69 23 -4 89 -20 147 -35 l106 -29 114 50 c111 47 142 67 152 95 3 8 8 11 12 8 4 -3 2 -18 -4 -33 -7 -20 -29 -36 -81 -60 l-71 -33 41 -7 c28 -4 46 -14 57 -32 16 -23 16 -30 -6 -120 -17 -74 -32 -109 -68 -162 -25 -37 -53 -87 -63 -112 -24 -63 -34 -152 -19 -180 17 -31 7 -34 -46 -16 -26 9 -59 16 -73 15 -14 0 -21 -2 -16 -4 6 -1 39 -11 75 -21 229 -63 438 -329 510 -648 10 -44 19 -73 19 -64 3 66 -58 251 -127 382 -42 80 -158 208 -243 268 -62 43 -71 54 -39 45 16 -4 29 15 84 127 64 129 66 133 195 261 72 72 131 135 131 141 0 6 9 19 19 28 11 10 22 29 26 44 3 14 21 60 39 101 42 96 99 380 100 498 l1 83 -80 81 c-44 45 -102 99 -128 120 -44 35 -54 39 -108 39 -53 0 -59 -2 -59 -20z m-150 -294 c6 -24 10 -72 9 -106 l-4 -62 43 -17 c24 -10 59 -30 78 -45 42 -34 45 -68 7 -105 -16 -14 -37 -39 -48 -54 -18 -26 -29 -29 -134 -43 -62 -8 -116 -13 -118 -10 -9 8 66 27 143 35 64 8 82 14 97 32 18 23 18 24 0 31 -10 4 -53 10 -95 13 -43 4 -78 11 -78 17 0 6 18 8 48 4 89 -12 171 -11 183 1 7 7 9 22 5 38 -5 21 -22 33 -79 59 -71 33 -72 34 -107 106 -19 40 -45 86 -57 103 -31 41 -29 56 2 27 14 -13 40 -53 58 -89 l32 -66 3 54 c2 29 -2 67 -7 84 -13 36 -14 50 -2 43 4 -3 14 -25 21 -50z"/>
<path d="M1526 4563 c-6 -14 -5 -15 5 -6 7 7 10 15 7 18 -3 3 -9 -2 -12 -12z"/>
<path d="M2215 4515 c49 -44 157 -116 263 -173 43 -24 119 -72 168 -106 49 -35 90 -62 92 -61 2 2 -48 83 -110 181 l-114 177 -149 2 c-83 0 -159 5 -170 9 -11 4 -2 -9 20 -29z"/>
<path d="M1447 4508 c-10 -34 -8 -88 2 -88 20 0 29 72 12 98 -6 10 -10 8 -14 -10z"/>
<path d="M1430 4274 c-7 -19 -14 -33 -16 -31 -3 2 -21 -1 -42 -8 -34 -12 -38 -17 -45 -61 -12 -76 -58 -306 -64 -321 -3 -8 2 -13 13 -13 9 0 26 -8 37 -17 12 -11 21 -14 24 -7 14 40 119 207 157 251 45 51 63 60 149 78 27 6 24 9 -55 56 -93 56 -122 79 -98 79 8 0 2 7 -14 15 -15 8 -30 15 -31 15 -2 0 -9 -16 -15 -36z"/>
<path d="M5093 3781 c-51 -43 -125 -108 -165 -144 l-73 -66 75 23 c41 13 119 31 173 41 l97 17 0 104 c0 57 -3 104 -7 104 -5 0 -49 -36 -100 -79z"/>
<path d="M1294 3661 c-52 -24 -119 -102 -135 -160 -20 -67 -17 -202 6 -311 l20 -95 7 91 c15 193 65 337 146 425 20 23 22 30 13 48 -7 12 -13 21 -14 21 -1 0 -20 -9 -43 -19z"/>
<path d="M5075 3604 c-90 -16 -220 -51 -250 -67 -11 -5 -66 -44 -123 -86 -116 -85 -116 -83 16 -101 43 -6 94 -15 113 -21 21 -6 97 -7 202 -3 l167 7 0 143 c0 166 13 153 -125 128z m-110 -65 c-7 -10 -65 -17 -65 -8 0 4 10 9 23 11 36 6 46 5 42 -3z"/>
<path d="M1516 3439 c-3 -17 -6 -61 -5 -98 0 -71 0 -72 42 37 l25 62 -21 15 c-30 21 -34 19 -41 -16z"/>
<path d="M1650 3349 c-19 -12 -55 -40 -80 -63 -25 -23 -54 -48 -66 -56 -11 -8 -45 -51 -75 -95 -71 -104 -102 -204 -124 -395 -19 -172 -29 -207 -105 -365 -78 -163 -115 -249 -134 -316 -8 -30 -25 -64 -36 -74 -11 -10 -30 -50 -43 -89 -18 -59 -22 -95 -22 -206 0 -127 11 -257 21 -247 3 2 0 53 -6 113 -12 122 -2 246 27 342 34 114 42 106 36 -45 -11 -272 26 -402 194 -685 59 -99 241 -353 249 -346 1 2 -2 49 -9 106 -37 338 113 681 350 797 62 31 79 36 94 27 10 -7 35 -12 54 -12 19 0 35 -4 35 -10 0 -5 -14 -10 -30 -10 -88 0 -202 -107 -274 -255 -40 -81 -93 -241 -84 -250 2 -2 23 28 46 68 48 80 144 195 209 248 128 103 258 153 379 147 l76 -4 -5 53 c-3 29 -1 53 4 53 9 0 14 -18 23 -85 4 -27 14 -46 31 -58 14 -10 23 -23 19 -28 -3 -5 4 -9 15 -9 26 0 26 -7 1 -28 -19 -16 -20 -18 -4 -40 9 -13 34 -37 57 -53 44 -32 88 -37 127 -13 l25 14 -25 -1 c-42 -2 -48 0 -85 32 -74 66 -109 191 -85 311 21 110 58 160 138 191 41 15 44 15 97 -9 53 -25 72 -40 62 -50 -3 -3 -27 4 -54 15 -73 31 -88 31 -86 1 3 -24 2 -24 -12 -6 -13 18 -16 18 -40 2 -20 -13 -25 -24 -24 -59 1 -40 1 -41 11 -15 6 19 20 31 41 36 44 12 46 6 7 -26 -26 -23 -32 -34 -28 -55 3 -14 0 -28 -5 -30 -13 -4 -2 -37 13 -37 5 0 10 10 10 23 0 13 14 36 30 52 l31 29 55 -62 c31 -34 60 -60 65 -57 5 4 17 2 26 -4 12 -6 20 -5 29 6 6 10 16 13 24 8 35 -22 -30 -202 -94 -257 -17 -16 -23 -25 -13 -22 9 4 24 1 32 -6 8 -7 26 -10 40 -6 19 5 23 3 19 -9 -8 -21 1 -19 51 10 57 34 89 84 116 182 12 45 26 80 30 77 14 -8 10 -125 -6 -178 -8 -27 -13 -51 -12 -53 8 -8 68 139 87 213 15 57 19 94 15 134 -6 50 -5 54 9 40 24 -23 39 -125 32 -214 -3 -43 -4 -77 -2 -75 10 10 110 315 136 414 65 244 77 454 36 636 -14 59 -34 125 -45 147 -19 36 -24 40 -73 46 -97 13 -426 92 -653 158 -160 46 -334 117 -574 234 -140 68 -257 124 -260 124 -3 0 -22 -10 -41 -21z m458 -216 c-16 -2 -28 -6 -28 -8 0 -18 47 -104 81 -148 51 -66 146 -118 244 -136 59 -11 265 -22 265 -14 0 14 -52 103 -60 103 -6 0 -10 7 -10 15 0 19 10 19 36 0 48 -33 89 -195 66 -257 -6 -14 -32 -41 -58 -59 -46 -32 -47 -32 -138 -26 -111 7 -216 34 -300 77 -92 48 -229 143 -242 169 -7 13 -28 39 -47 59 -43 45 -52 72 -37 116 11 33 69 88 112 106 13 5 50 8 83 8 33 -1 48 -3 33 -5z m266 -92 c9 -14 -20 -32 -39 -25 -17 7 -17 8 1 21 21 15 31 16 38 4z m-699 -569 c-9 -9 -26 41 -19 56 5 13 9 8 15 -18 4 -19 6 -36 4 -38z m-185 12 c0 -8 -5 -12 -10 -9 -6 4 -8 11 -5 16 9 14 15 11 15 -7z m-62 -13 c3 -8 -1 -12 -9 -9 -7 2 -15 10 -17 17 -3 8 1 12 9 9 7 -2 15 -10 17 -17z m166 -30 c18 -18 24 -31 17 -36 -14 -8 -71 32 -71 51 0 23 24 16 54 -15z m-95 -21 c-28 -23 -35 -35 -32 -54 5 -24 5 -24 25 -4 23 23 42 19 45 -8 2 -11 0 -13 -3 -6 -4 9 -12 4 -25 -17 -25 -42 -24 -60 2 -27 11 14 24 26 29 26 4 0 15 -19 25 -42 16 -42 51 -88 66 -88 4 0 9 10 11 22 4 30 28 36 28 6 0 -80 -64 -218 -113 -245 -54 -30 -127 2 -162 72 -42 84 -29 269 23 330 30 35 74 65 96 65 18 -1 16 -5 -15 -30z m160 -64 c13 -54 14 -66 2 -66 -5 0 -14 23 -20 50 -13 61 -13 60 -2 60 5 0 14 -20 20 -44z m-339 19 c0 -2 -11 -39 -25 -81 -31 -96 -31 -108 2 -190 71 -180 206 -209 353 -78 34 30 65 52 68 49 4 -4 -4 -15 -18 -26 -19 -14 -22 -21 -12 -27 9 -6 -6 -28 -57 -78 -38 -37 -78 -72 -88 -75 -33 -14 -153 -10 -182 6 -25 12 -31 12 -47 0 -11 -8 -31 -15 -46 -15 -34 0 -38 30 -8 58 20 18 20 19 -11 48 -43 41 -81 118 -77 157 4 32 4 31 17 -13 15 -51 40 -104 47 -98 2 3 -3 27 -11 54 -26 87 -20 132 31 228 25 47 50 86 55 86 5 0 9 -2 9 -5z m1463 -484 c31 -56 32 -61 13 -61 -7 0 -22 21 -32 47 -11 27 -20 51 -22 55 -2 5 0 8 6 8 5 0 21 -22 35 -49z m107 19 c0 -5 -7 -10 -16 -10 -8 0 -12 5 -9 10 3 6 10 10 16 10 5 0 9 -4 9 -10z m50 -55 c14 -16 10 -18 -14 -9 -9 3 -16 10 -16 15 0 14 16 11 30 -6z m-1350 -31 c0 -24 -161 -47 -175 -24 -4 6 18 10 57 11 35 0 72 4 83 9 24 10 35 12 35 4z m-454 -288 c52 -81 108 -126 154 -126 11 0 20 -4 20 -10 0 -17 -33 -11 -80 13 -77 38 -161 177 -175 289 -5 34 0 26 24 -41 17 -46 42 -102 57 -125z"/>
<path d="M1470 2245 c0 -8 5 -15 10 -15 6 0 10 7 10 15 0 8 -4 15 -10 15 -5 0 -10 -7 -10 -15z"/>
<path d="M1526 2173 c-12 -12 -6 -33 9 -33 8 0 15 6 15 14 0 17 -14 28 -24 19z"/>
<path d="M1576 2131 c-10 -11 -16 -30 -14 -43 l3 -23 28 27 c29 29 36 58 14 58 -8 0 -22 -9 -31 -19z"/>
<path d="M1450 2106 c-6 -17 -6 -35 0 -51 19 -49 64 -20 58 37 -4 44 -43 53 -58 14z"/>
<path d="M3706 3041 c-3 -5 1 -26 10 -47 34 -80 4 -248 -62 -347 l-27 -40 -13 29 c-8 16 -12 20 -8 9 5 -17 13 -55 38 -175 3 -14 3 3 0 38 -3 35 -8 71 -11 80 -4 9 60 -47 141 -125 81 -79 156 -147 166 -153 17 -9 21 -5 34 42 26 90 34 178 26 303 -11 161 -36 233 -105 300 -73 71 -171 116 -189 86z"/>
<path d="M510 2960 c0 -7 3 -10 7 -7 3 4 3 10 0 14 -4 3 -7 0 -7 -7z"/>
<path d="M535 2922 c-21 -125 47 -252 198 -369 32 -25 60 -43 62 -41 3 2 -36 66 -85 142 -49 76 -94 154 -101 174 -10 31 -53 118 -64 130 -2 2 -6 -15 -10 -36z"/>
<path d="M4260 2919 c0 -6 18 -31 40 -56 54 -62 80 -147 80 -263 0 -49 -4 -92 -10 -95 -6 -4 -10 26 -10 82 0 138 -32 230 -101 287 -49 41 -59 28 -59 -80 0 -159 -59 -321 -160 -443 l-54 -64 35 -30 c19 -16 52 -41 74 -55 22 -15 43 -31 47 -36 3 -5 22 4 40 20 311 263 412 363 457 452 31 62 45 120 35 146 -10 25 -19 19 -33 -21 -8 -21 -36 -79 -62 -129 -40 -73 -60 -100 -107 -136 -76 -59 -77 -59 -104 -49 -22 9 -22 10 -2 10 35 1 69 97 69 196 0 93 -27 164 -90 234 -36 39 -85 57 -85 30z"/>
<path d="M3359 2778 c50 -91 73 -180 80 -318 l6 -125 28 112 c15 61 32 135 36 163 l8 52 -32 -6 c-32 -6 -33 -5 -64 58 -17 36 -35 76 -41 90 -6 16 -17 26 -30 26 -19 0 -19 -3 9 -52z"/>
<path d="M3551 2765 c0 -5 11 -30 24 -55 13 -25 24 -40 24 -35 0 6 -11 30 -24 55 -13 25 -24 41 -24 35z"/>
<path d="M3630 2668 c0 -19 2 -20 10 -8 13 19 13 30 0 30 -5 0 -10 -10 -10 -22z"/>
<path d="M5113 2675 c-40 -7 -100 -16 -135 -20 l-63 -8 55 -50 c67 -62 212 -177 222 -177 5 0 8 61 8 135 0 74 -3 135 -7 134 -5 0 -40 -7 -80 -14z"/>
<path d="M3627 2387 c-18 -152 -171 -518 -349 -837 l-20 -35 21 25 c33 41 205 386 255 512 26 64 58 154 71 200 25 80 43 188 33 188 -3 0 -8 -24 -11 -53z"/>
<path d="M4750 2383 c0 -11 112 -63 157 -74 49 -10 31 7 -41 40 -72 34 -116 47 -116 34z"/>
<path d="M4870 2293 c0 -5 5 -15 10 -23 6 -10 4 -20 -6 -31 -14 -15 -13 -19 8 -33 25 -18 80 -21 108 -6 18 10 18 11 -3 45 -21 33 -61 55 -98 55 -11 0 -19 -3 -19 -7z"/>
<path d="M696 2168 c-45 -68 -65 -194 -51 -304 l8 -59 13 110 c7 61 24 147 37 193 24 81 21 103 -7 60z"/>
<path d="M4945 2110 c7 -12 62 -12 90 0 14 6 4 9 -38 9 -36 1 -56 -3 -52 -9z"/>
<path d="M3980 1963 c-43 -49 -85 -121 -77 -130 10 -10 90 81 109 124 11 24 18 47 15 49 -2 3 -24 -17 -47 -43z"/>
<path d="M3645 1928 c-26 -14 -115 -100 -115 -111 0 -5 15 1 34 12 23 15 50 21 89 21 48 0 60 4 82 27 14 15 25 31 25 36 0 17 -89 30 -115 15z"/>
<path d="M3811 1924 c-32 -23 -71 -60 -71 -68 0 -4 4 -5 9 -1 5 3 12 1 16 -5 17 -28 62 4 79 57 9 28 -5 36 -33 17z"/>
<path d="M5130 1895 c0 -2 16 -15 35 -29 l35 -27 0 30 c0 28 -2 30 -35 29 -19 -1 -35 -2 -35 -3z"/>
<path d="M3388 1868 c-27 -42 -68 -127 -68 -143 0 -33 19 -12 47 53 33 74 47 112 40 112 -3 0 -11 -10 -19 -22z"/>
<path d="M3506 1865 c-35 -37 -59 -82 -47 -89 16 -10 86 84 79 106 -3 8 -14 2 -32 -17z"/>
<path d="M4546 1734 c25 -55 51 -109 57 -121 13 -30 19 -29 40 7 10 16 34 51 53 76 28 36 33 49 22 55 -25 16 -158 69 -188 76 l-31 6 47 -99z"/>
<path d="M4151 1711 c-26 -36 -26 -47 -2 -60 15 -9 22 -6 35 14 20 30 20 49 2 64 -11 9 -18 6 -35 -18z"/>
<path d="M4688 1649 c-52 -80 -56 -92 -46 -114 6 -14 14 -25 17 -25 9 1 100 145 116 184 8 18 11 36 8 40 -19 18 -44 -4 -95 -85z"/>
<path d="M2626 1711 c-9 -14 4 -41 20 -41 8 0 14 6 14 14 0 18 -26 40 -34 27z"/>
<path d="M2680 1660 c-23 -23 -26 -53 -6 -69 11 -9 22 -7 50 10 42 25 46 51 11 67 -33 15 -32 15 -55 -8z"/>
<path d="M2547 1642 c-23 -25 -21 -55 4 -78 15 -13 24 -16 36 -8 32 20 39 42 23 72 -19 33 -41 38 -63 14z"/>
<path d="M3824 1578 c-4 -7 -3 -8 4 -4 12 7 16 16 8 16 -3 0 -8 -5 -12 -12z"/>
<path d="M3778 1503 c-76 -112 -80 -123 -63 -149 8 -13 19 -24 23 -24 4 0 21 26 37 57 17 32 40 74 52 95 l23 37 -23 -8 c-14 -5 -22 -17 -21 -30 0 -11 -3 -21 -8 -21 -12 0 -10 44 4 58 6 6 9 14 6 17 -3 3 -16 -12 -30 -32z"/>
<path d="M2321 1476 c-11 -13 -11 -19 -1 -31 7 -9 10 -19 6 -22 -4 -4 -11 -1 -17 7 -12 20 -35 -7 -97 -113 -31 -54 -59 -88 -89 -108 -69 -48 -236 -221 -285 -295 -77 -119 -78 -128 -2 -24 47 65 291 320 305 320 4 0 -17 -52 -47 -116 -31 -64 -54 -118 -51 -120 2 -2 21 22 42 53 20 32 97 117 170 189 149 147 159 167 115 218 -15 17 -29 37 -31 45 -4 10 -7 10 -18 -3z"/>
<path d="M4361 1476 c-9 -11 -1 -43 39 -148 49 -125 140 -331 140 -315 0 12 -49 236 -67 302 -19 76 -69 175 -87 175 -7 0 -19 -6 -25 -14z"/>
<path d="M2929 1454 c-19 -14 -55 -37 -81 -50 -27 -13 -48 -31 -48 -39 0 -12 5 -12 41 0 49 18 49 18 49 6 0 -4 -20 -14 -45 -21 -52 -15 -55 -17 -84 -92 -13 -31 -43 -90 -68 -130 -25 -40 -47 -77 -51 -83 -3 -5 7 1 23 15 31 28 204 257 256 340 61 95 60 93 8 54z"/>
<path d="M4208 1439 c-17 -30 -16 -79 2 -79 29 0 49 55 34 94 -9 23 -17 20 -36 -15z"/>
<path d="M991 1414 c0 -11 3 -14 6 -6 3 7 2 16 -1 19 -3 4 -6 -2 -5 -13z"/>
<path d="M2114 1358 c-4 -7 -3 -8 4 -4 12 7 16 16 8 16 -3 0 -8 -5 -12 -12z"/>
<path d="M3638 1278 c-51 -77 -88 -140 -75 -128 3 3 29 40 57 83 29 43 58 81 66 84 9 3 17 43 8 43 0 0 -26 -37 -56 -82z"/>
<path d="M1912 1343 c-22 -4 -72 -60 -72 -81 0 -16 27 -15 32 0 2 6 30 13 64 15 32 2 70 4 84 5 14 1 37 16 53 34 l28 33 -28 -14 c-29 -15 -113 -10 -113 6 0 9 -8 10 -48 2z"/>
<path d="M1777 1312 c-28 -30 -36 -62 -14 -62 10 0 27 25 55 83 8 17 -16 5 -41 -21z"/>
<path d="M3700 1299 c-17 -30 -6 -34 14 -4 9 14 12 25 7 25 -6 0 -15 -9 -21 -21z"/>
<path d="M2393 1279 c-38 -24 -36 -35 9 -44 27 -6 36 -3 55 19 13 15 23 31 23 37 0 16 -54 9 -87 -12z"/>
<path d="M2595 1283 c-26 -6 -85 -51 -85 -64 0 -35 70 -1 108 52 13 19 12 20 -23 12z"/>
<path d="M3920 1249 c-7 -11 -10 -23 -7 -25 2 -2 9 7 15 21 14 30 7 33 -8 4z"/>
<path d="M2983 1217 c-43 -16 -52 -27 -21 -27 13 0 56 -11 96 -24 60 -21 71 -22 76 -9 3 8 6 16 6 19 0 7 -99 54 -112 53 -7 0 -27 -6 -45 -12z"/>
<path d="M3230 1127 c0 -22 14 -32 98 -75 109 -56 242 -101 220 -75 -33 41 -213 142 -295 167 -20 6 -23 4 -23 -17z"/>
<path d="M3594 1138 c-4 -7 -3 -8 4 -4 12 7 16 16 8 16 -3 0 -8 -5 -12 -12z"/>
<path d="M3532 1095 c-25 -52 -26 -55 -12 -55 6 0 10 9 10 19 0 11 4 23 10 26 6 3 7 -1 4 -9 -10 -25 2 -19 22 12 17 26 17 27 -1 12 -17 -14 -18 -13 -11 13 9 39 3 34 -22 -18z"/>
<path d="M3894 1088 c-4 -7 -3 -8 4 -4 12 7 16 16 8 16 -3 0 -8 -5 -12 -12z"/>
<path d="M3917 1068 c-28 -38 -40 -58 -34 -58 2 0 18 20 36 45 18 25 30 45 27 45 -3 0 -16 -15 -29 -32z"/>
<path d="M3875 1059 c-4 -6 -5 -12 -2 -15 2 -3 7 2 10 11 7 17 1 20 -8 4z"/>
<path d="M3794 1028 c-12 -14 -13 -18 -3 -10 9 6 19 9 22 5 4 -3 7 1 7 10 0 22 -3 21 -26 -5z"/>
<path d="M3846 990 c-20 -51 -21 -71 0 -42 14 20 29 82 20 82 -2 0 -11 -18 -20 -40z"/>
<path d="M3800 1000 c0 -7 3 -10 7 -7 3 4 3 10 0 14 -4 3 -7 0 -7 -7z"/>
<path d="M3747 972 c-20 -21 -23 -29 -12 -29 8 0 13 3 10 5 -3 3 5 16 17 29 12 13 19 23 17 23 -3 0 -17 -13 -32 -28z"/>
<path d="M3035 962 c-22 -11 -48 -28 -58 -39 -17 -19 -16 -20 40 -34 32 -8 94 -14 138 -13 120 1 278 15 268 24 -19 17 -223 72 -283 76 -50 4 -74 0 -105 -14z"/>
<path d="M3785 950 c-3 -5 -1 -10 4 -10 6 0 11 5 11 10 0 6 -2 10 -4 10 -3 0 -8 -4 -11 -10z"/>
<path d="M3703 923 c4 -3 10 -3 14 0 3 4 0 7 -7 7 -7 0 -10 -3 -7 -7z"/>
<path d="M3794 905 c-9 -22 5 -35 37 -35 38 0 37 14 -2 34 -25 13 -31 13 -35 1z"/>
<path d="M3643 893 c4 -3 10 -3 14 0 3 4 0 7 -7 7 -7 0 -10 -3 -7 -7z"/>
<path d="M3338 852 c-14 -6 -15 -10 -3 -25 17 -24 53 -19 73 11 14 21 13 22 -19 21 -19 0 -42 -3 -51 -7z"/>
<path d="M4241 786 c-45 -16 -56 -41 -15 -33 46 9 84 26 84 37 0 13 -26 12 -69 -4z"/>
<path d="M2571 764 c-6 -15 -10 -28 -8 -30 2 -2 25 -7 51 -10 36 -5 50 -3 57 7 14 22 11 28 -23 37 -18 6 -40 13 -49 16 -11 5 -19 -2 -28 -20z"/>
<path d="M3175 366 c-24 -8 -41 -20 -43 -30 -6 -29 11 -35 51 -19 28 12 37 21 37 39 0 13 -1 24 -2 23 -2 -1 -21 -7 -43 -13z"/>
<path d="M2747 322 c7 -59 13 -66 52 -57 36 8 35 6 17 49 -9 22 -24 37 -45 44 l-30 11 6 -47z"/>
<path d="M1610 316 c0 -11 115 -63 155 -70 30 -5 20 2 -45 29 -47 20 -91 38 -97 42 -7 3 -13 2 -13 -1z"/>
<path d="M2583 263 c-18 -7 -16 -33 3 -33 21 0 54 18 54 30 0 10 -36 12 -57 3z"/>
<path d="M1818 233 c7 -3 16 -2 19 1 4 3 -2 6 -13 5 -11 0 -14 -3 -6 -6z"/>
</g>


</svg>