<?xml version="1.0" standalone="no"?><!DOCTYPE svg PUBLIC "-//W3C//DTD SVG 1.1//EN" "http://www.w3.org/Graphics/SVG/1.1/DTD/svg11.dtd"><svg t="1598078770324" class="icon" viewBox="0 0 1024 1024" version="1.1" xmlns="http://www.w3.org/2000/svg" p-id="2357" xmlns:xlink="http://www.w3.org/1999/xlink" width="200" height="200"><defs><style type="text/css"></style></defs><path d="M691.3 294l-25.6-17.4 26.4-52.5 26.8 14z" fill="#FFBC00" p-id="2358"></path><path d="M693.3 301.3l-34-23 30.6-61 35.6 18.6-32.2 65.4zM672.2 275l17.2 11.6 22.9-46.3-17.9-9.4-22.2 44.1z" fill="" p-id="2359"></path><path d="M738.5 168.1m-72.7 0a72.7 72.7 0 1 0 145.4 0 72.7 72.7 0 1 0-145.4 0Z" fill="#BA6A00" p-id="2360"></path><path d="M738.5 245.8c-42.9 0-77.7-34.9-77.7-77.7s34.9-77.7 77.7-77.7c42.9 0 77.7 34.9 77.7 77.7s-34.9 77.7-77.7 77.7z m0-145.5c-37.3 0-67.7 30.4-67.7 67.7s30.4 67.7 67.7 67.7 67.7-30.4 67.7-67.7-30.4-67.7-67.7-67.7z" fill="" p-id="2361"></path><path d="M327.1 295.8l25.5-17.3-26.3-52.5-26.8 14z" fill="#FFBC00" p-id="2362"></path><path d="M325.1 303.2l-32.3-65.4 35.6-18.6 30.6 61-33.9 23z m-19-61.1l22.9 46.3 17.2-11.6-22.1-44.1-18 9.4z" fill="" p-id="2363"></path><path d="M279.9 169.9m-72.7 0a72.7 72.7 0 1 0 145.4 0 72.7 72.7 0 1 0-145.4 0Z" fill="#BA6A00" p-id="2364"></path><path d="M279.9 247.6c-42.9 0-77.7-34.9-77.7-77.7s34.9-77.7 77.7-77.7 77.7 34.9 77.7 77.7-34.8 77.7-77.7 77.7z m0-145.4c-37.3 0-67.7 30.4-67.7 67.7s30.4 67.7 67.7 67.7 67.7-30.4 67.7-67.7-30.3-67.7-67.7-67.7z" fill="" p-id="2365"></path><path d="M743.9 344.8s90.3 39.4 119.2 31.4-28.4 82.6-73.5 47.3" fill="#FFBC00" p-id="2366"></path><path d="M812.5 436.7c-9.2 0-18-3.1-25.9-9.3l6.2-7.9c16.6 13 34.1 5.8 45.8-2.5 17.4-12.3 27.7-31 27.5-36.4-0.3 0-0.9 0.1-1.5 0.3-30.3 8.3-118.8-30-122.6-31.7l4-9.2c24.7 10.8 93.6 37.3 115.9 31.2 8.6-2.4 11.9 2.1 13 4.1 5.3 10.2-9 32.3-25.2 45.7-12.4 10.5-25.2 15.7-37.2 15.7z" fill="" p-id="2367"></path><path d="M274.1 349s-91.6 41-120.5 33c-28.9-8 30.5 82.9 75.6 47.5" fill="#FFBC00" p-id="2368"></path><path d="M206.3 442.7c-12.4 0-25.7-5.4-38.6-16.2-16.2-13.5-30.7-35.4-25.5-45.3 1-2 4.3-6.3 12.8-4 22.3 6.1 92.1-21.5 117.2-32.7l4.1 9.1c-9.5 4.3-94.1 41.5-123.9 33.3-0.6-0.2-1-0.2-1.3-0.3 0.1 5.7 11.3 24.7 29.3 36.9 11.9 8.1 29.5 15 45.9 2.2l6.2 7.9c-8.1 6.1-16.9 9.1-26.2 9.1z" fill="" p-id="2369"></path><path d="M510.7 533.5m-300 0a300 300 0 1 0 600 0 300 300 0 1 0-600 0Z" fill="#FFBC00" p-id="2370"></path><path d="M510.7 838.5c-81.5 0-158.1-31.7-215.7-89.3-57.6-57.6-89.3-134.2-89.3-215.7s31.7-158.1 89.3-215.7c57.6-57.6 134.2-89.3 215.7-89.3s158.1 31.7 215.7 89.3c57.6 57.6 89.3 134.2 89.3 215.7S784 691.6 726.4 749.2c-57.6 57.6-134.2 89.3-215.7 89.3z m0-600c-162.7 0-295 132.3-295 295s132.3 295 295 295 295-132.3 295-295-132.3-295-295-295z" fill="" p-id="2371"></path><path d="M804.2 596.1C775.5 731.7 655 833.5 510.8 833.5c-148.1 0-271.2-107.3-295.6-248.4 333.8-113.1 560.4-4.1 589 11z" fill="#FFFFFF" p-id="2372"></path><path d="M510.8 836c-71.7 0-141.2-25.5-195.8-71.9-53.9-45.8-90.3-109.3-102.3-178.6l-0.4-2.1 2-0.7c76.8-26 154-42.2 229.5-48.2 61.6-4.9 122.4-3 180.7 5.6 100.9 14.8 164 44.9 180.9 53.8l1.7 0.9-0.4 1.9c-14.2 66.8-51.2 127.5-104.3 171-26.5 21.7-56.1 38.6-88.1 50.2-33.1 12-68 18.1-103.5 18.1zM218 586.8C243.6 728.4 366.4 831 510.8 831c139.1 0 261-98.1 290.6-233.6-19-9.7-80.6-38.1-177.6-52.4-130.1-19.1-266.6-5.1-405.8 41.8z" fill="" p-id="2373"></path><path d="M358.3 630.4c-2-3.8-2.6-8.1-1.7-12.2 1-4.3 3.6-7.7 7.3-9.7 3.7-2 8-2.2 12.1-0.7 3.9 1.4 7.1 4.3 9.2 8.2l-8.8 4.7c-0.9-1.7-2.2-2.9-3.8-3.5-0.8-0.3-2.4-0.7-3.9 0.1-1.5 0.8-2.1 2.3-2.3 3.2-0.4 1.7-0.1 3.5 0.8 5.1l-8.9 4.8zM661.2 630.4l-8.8-4.7c0.9-1.7 1.2-3.5 0.8-5.1-0.2-0.8-0.8-2.3-2.3-3.2-2.6-1.4-6 0.1-7.7 3.4l-8.8-4.7c4.3-8.1 13.8-11.4 21.3-7.5 3.7 2 6.3 5.4 7.3 9.7 0.8 4 0.2 8.3-1.8 12.1z" fill="" p-id="2374"></path><path d="M259 589.2a57.5 21.3 0 1 0 115 0 57.5 21.3 0 1 0-115 0Z" fill="#FFD4DC" p-id="2375"></path><path d="M647.4 587.8a57.5 21.3 0 1 0 115 0 57.5 21.3 0 1 0-115 0Z" fill="#FFD4DC" p-id="2376"></path><path d="M359.7 533.5m-55 0a55 55 0 1 0 110 0 55 55 0 1 0-110 0Z" fill="" p-id="2377"></path><path d="M359.7 590c-31.2 0-56.5-25.3-56.5-56.5s25.3-56.5 56.5-56.5 56.5 25.3 56.5 56.5-25.3 56.5-56.5 56.5z m0-110c-29.5 0-53.5 24-53.5 53.5s24 53.5 53.5 53.5 53.5-24 53.5-53.5-24-53.5-53.5-53.5z" fill="" p-id="2378"></path><path d="M335.9 518.3m-15.2 0a15.2 15.2 0 1 0 30.4 0 15.2 15.2 0 1 0-30.4 0Z" fill="#FFFFFF" p-id="2379"></path><path d="M398.8 551.1c2.4 4.2-1.2 14.8-13.9 22.3s-26.4 6.4-28.9 2.3c-2.4-4.2 9.7-1.6 22.5-9 12.8-7.6 17.9-19.8 20.3-15.6z" fill="#565656" p-id="2380"></path><path d="M661.5 533.5m-55 0a55 55 0 1 0 110 0 55 55 0 1 0-110 0Z" fill="" p-id="2381"></path><path d="M661.5 590c-31.2 0-56.5-25.3-56.5-56.5s25.3-56.5 56.5-56.5 56.5 25.3 56.5 56.5-25.4 56.5-56.5 56.5z m0-110c-29.5 0-53.5 24-53.5 53.5s24 53.5 53.5 53.5 53.5-24 53.5-53.5-24-53.5-53.5-53.5z" fill="" p-id="2382"></path><path d="M637.7 518.3m-15.2 0a15.2 15.2 0 1 0 30.4 0 15.2 15.2 0 1 0-30.4 0Z" fill="#FFFFFF" p-id="2383"></path><path d="M700.6 551.1c2.4 4.2-1.2 14.8-13.9 22.3s-26.4 6.4-28.9 2.3c-2.4-4.2 9.7-1.6 22.5-9 12.8-7.6 17.9-19.8 20.3-15.6z" fill="#565656" p-id="2384"></path><path d="M636.3 306l-19.2 15.7c-7 5.8-17.5 4.7-23.3-2.3l-13.9-17c-5.8-7-4.7-17.5 2.3-23.3l19.2-15.7c7-5.8 17.5-4.7 23.3 2.3l13.9 17c5.8 7.1 4.7 17.6-2.3 23.3zM390.8 294.1l8.3 23.4c3 8.6-1.5 18.1-10.1 21.1l-20.7 7.3c-8.6 3-18.1-1.5-21.1-10.1l-8.3-23.4c-3-8.6 1.5-18.1 10.1-21.1l20.7-7.3c8.6-3 18.1 1.5 21.1 10.1zM723.8 324.4l-10.3 1.9c-9 1.6-15 10.2-13.4 19.2l3.9 21.6c1.6 9 10.2 15 19.2 13.4l24.4-4.4c5.6-1 9.5-3.2 11.6-7.8 0.1-0.1-12.1-19.5-35.4-43.9zM439.4 243.5l9.3 11.3c5.8 7 16.2 8.1 23.3 2.3l19.2-15.7c2.2-1.8 3.8-3.7 4.8-6.1 0 0-28.8 1.4-56.6 8.2zM235.9 416.7c-2.1 5.1 11.2 0.8 15.7-2.9l19.2-15.7c7-5.8 8.1-16.2 2.3-23.3l-8.5-10.4s-17 23.7-28.7 52.3zM804.2 478.9l-2.5 2.7c-6.2 6.7-5.7 17.2 0.9 23.4l5.6 5.2c0.1 0-0.8-15.7-4-31.3z" fill="#BA6A00" p-id="2385"></path></svg>